<svg width="50" height="50" viewBox="0 0 50 50" fill="none" xmlns="http://www.w3.org/2000/svg">
<g id="woodland 1">
<g id="Group">
<path id="Vector" d="M47.5363 46.8527H39.9828V36.3246C40.128 36.3423 40.2741 36.3516 40.4203 36.3524C41.4334 36.3506 42.4044 35.9474 43.1207 35.231C43.837 34.5146 44.2402 33.5435 44.2418 32.5305V32.4938C44.8817 32.407 45.4892 32.1595 46.0076 31.7744C46.5261 31.3894 46.9385 30.8793 47.2065 30.2917C47.4745 29.7042 47.5893 29.0583 47.5402 28.4144C47.4911 27.7705 47.2797 27.1495 46.9258 26.6094C47.3643 26.2231 47.7082 25.7413 47.9312 25.2011C48.1541 24.6609 48.2501 24.0768 48.2118 23.4936C48.1734 22.9105 48.0018 22.344 47.71 21.8376C47.4183 21.3313 47.0142 20.8987 46.5289 20.5731C46.837 19.7001 46.8173 18.745 46.4736 17.8855C46.1299 17.026 45.4856 16.3206 44.6606 15.9008C44.6985 15.6863 44.7175 15.469 44.7176 15.2512C44.7161 14.3593 44.4029 13.496 43.8323 12.8105C43.2617 12.125 42.4694 11.6605 41.5926 11.4973C41.5586 10.5075 41.1416 9.5696 40.4297 8.88121C39.7177 8.19282 38.7663 7.80771 37.7759 7.80705C36.7855 7.80639 35.8336 8.19023 35.1207 8.87768C34.4078 9.56512 33.9896 10.5025 33.9543 11.4922C33.7343 11.5353 33.5186 11.5979 33.3098 11.6793C33.3691 11.3864 33.3991 11.0883 33.3992 10.7895C33.3976 9.7052 33.0091 8.6571 32.3037 7.83365C31.5984 7.0102 30.6223 6.46542 29.5512 6.29728C29.5519 5.09034 29.073 3.93256 28.2201 3.07865C27.3671 2.22473 26.2099 1.74463 25.0029 1.74396C23.796 1.74328 22.6382 2.2221 21.7843 3.07506C20.9304 3.92802 20.4503 5.08526 20.4496 6.2922C19.378 6.46106 18.4018 7.00663 17.6964 7.83085C16.9911 8.65506 16.6029 9.70386 16.6016 10.7887C16.6018 11.0879 16.6319 11.3864 16.6914 11.6797C16.4826 11.5985 16.2669 11.5364 16.0469 11.4942C16.0108 10.5054 15.5927 9.56918 14.8804 8.88244C14.1682 8.19569 13.2174 7.81195 12.2279 7.81195C11.2385 7.81195 10.2877 8.19569 9.57545 8.88244C8.8632 9.56918 8.44506 10.5054 8.409 11.4942C7.53171 11.6581 6.73926 12.1234 6.16864 12.8096C5.59803 13.4958 5.28512 14.3599 5.284 15.2524C5.28405 15.4701 5.30314 15.6875 5.34103 15.902C4.51601 16.3215 3.87153 17.0265 3.52755 17.8858C3.18357 18.7451 3.16351 19.7001 3.47111 20.5731C2.98584 20.8987 2.58177 21.3313 2.29001 21.8376C1.99825 22.344 1.8266 22.9105 1.78826 23.4936C1.74992 24.0768 1.84592 24.6609 2.06887 25.2011C2.29182 25.7413 2.63577 26.2231 3.07424 26.6094C2.72028 27.1495 2.50891 27.7705 2.45982 28.4144C2.41074 29.0583 2.52554 29.7042 2.79354 30.2917C3.06153 30.8793 3.47397 31.3894 3.99239 31.7744C4.5108 32.1595 5.1183 32.407 5.75822 32.4938V32.5305C5.75987 33.5435 6.16301 34.5146 6.87931 35.231C7.59561 35.9474 8.56665 36.3506 9.5797 36.3524C9.72595 36.3516 9.87203 36.3423 10.0172 36.3246V46.8527H2.46369C2.28239 46.8527 2.10851 46.9248 1.98032 47.053C1.85212 47.1812 1.7801 47.355 1.7801 47.5363C1.7801 47.7176 1.85212 47.8915 1.98032 48.0197C2.10851 48.1479 2.28239 48.2199 2.46369 48.2199H47.5363C47.7176 48.2199 47.8915 48.1479 48.0197 48.0197C48.1479 47.8915 48.2199 47.7176 48.2199 47.5363C48.2199 47.355 48.1479 47.1812 48.0197 47.053C47.8915 46.9248 47.7176 46.8527 47.5363 46.8527ZM35.1953 12.559C35.2594 12.4841 35.3065 12.3963 35.3335 12.3015C35.3605 12.2067 35.3666 12.1072 35.3516 12.0098C35.3307 11.8851 35.3197 11.7589 35.3188 11.6324C35.3188 10.9815 35.5773 10.3573 36.0376 9.89699C36.4979 9.43672 37.1221 9.17814 37.7731 9.17814C38.424 9.17814 39.0482 9.43672 39.5085 9.89699C39.9688 10.3573 40.2274 10.9815 40.2274 11.6324C40.2264 11.7589 40.2154 11.8851 40.1945 12.0098C40.182 12.1078 40.1907 12.2073 40.2199 12.3016C40.2492 12.396 40.2983 12.4829 40.3641 12.5567C40.4308 12.6317 40.5127 12.6918 40.6043 12.7329C40.696 12.7739 40.7953 12.7951 40.8957 12.7949C41.2896 12.7936 41.6779 12.8873 42.0278 13.0682C42.3776 13.2491 42.6787 13.5117 42.9053 13.8338C43.1319 14.1559 43.2774 14.528 43.3295 14.9184C43.3816 15.3088 43.3386 15.7059 43.2043 16.0762C43.1731 16.1632 43.1599 16.2556 43.1654 16.3478C43.1709 16.4401 43.1951 16.5302 43.2364 16.6129C43.2777 16.6955 43.3354 16.7689 43.4059 16.8287C43.4763 16.8885 43.5582 16.9333 43.6465 16.9606C43.9986 17.0683 44.3219 17.2541 44.5923 17.5041C44.8627 17.754 45.0733 18.0617 45.2084 18.4042C45.3436 18.7467 45.3997 19.1153 45.3728 19.4826C45.3458 19.8498 45.2364 20.2063 45.0527 20.5254C45.0048 20.6088 44.9749 20.7014 44.9652 20.7972C44.9555 20.8929 44.9662 20.9897 44.9965 21.081C45.0267 21.1723 45.076 21.2563 45.1409 21.3273C45.2059 21.3983 45.2851 21.4547 45.3734 21.493C45.7929 21.6743 46.1534 21.9693 46.4142 22.3445C46.675 22.7198 46.8258 23.1604 46.8495 23.6168C46.8733 24.0732 46.7691 24.5271 46.5487 24.9274C46.3282 25.3277 46.0003 25.6585 45.602 25.8824C45.51 25.9344 45.4312 26.007 45.372 26.0945C45.3128 26.182 45.2747 26.2821 45.2606 26.3868C45.2466 26.4915 45.257 26.5981 45.2911 26.6981C45.3252 26.7982 45.382 26.8889 45.457 26.9633C45.8027 27.3055 46.0387 27.7428 46.1353 28.2195C46.2319 28.6962 46.1846 29.1909 45.9994 29.6406C45.8143 30.0904 45.4996 30.475 45.0954 30.7456C44.6912 31.0161 44.2157 31.1604 43.7293 31.1602C43.6625 31.1602 43.5969 31.1551 43.5317 31.1496C43.4248 31.1411 43.3174 31.1578 43.2181 31.1984C43.1189 31.2391 43.0306 31.3025 42.9605 31.3836C42.8903 31.4647 42.8402 31.5611 42.8142 31.6652C42.7882 31.7692 42.7871 31.8779 42.8109 31.9824C42.8523 32.1618 42.8736 32.3452 42.8746 32.5293C42.8752 33.0609 42.7031 33.5782 42.3841 34.0035C42.0652 34.4287 41.6167 34.7388 41.1062 34.887C40.5958 35.0353 40.051 35.0137 39.5539 34.8254C39.0567 34.6372 38.6343 34.2925 38.35 33.8434C38.2882 33.7464 38.203 33.6666 38.1022 33.6113C38.0013 33.556 37.8882 33.5271 37.7733 33.5271C37.6583 33.5271 37.5452 33.556 37.4444 33.6113C37.3435 33.6666 37.2583 33.7464 37.1965 33.8434C36.9338 34.2594 36.5518 34.5866 36.1003 34.7823C35.6489 34.978 35.1489 35.033 34.6657 34.9402C34.1825 34.8474 33.7384 34.6111 33.3915 34.2622C33.0447 33.9132 32.811 33.4678 32.7211 32.984C32.7816 32.6866 32.8122 32.3839 32.8125 32.0805C32.8125 32.0188 32.8125 31.957 32.8082 31.8945C33.5968 31.8128 34.3503 31.5265 34.9942 31.064C35.6381 30.6015 36.15 29.9789 36.4792 29.2577C36.8085 28.5365 36.9436 27.7418 36.8713 26.9524C36.7989 26.1629 36.5216 25.406 36.0668 24.7567C36.6201 24.2989 37.0572 23.7165 37.3421 23.0573C37.627 22.3981 37.7517 21.6808 37.706 20.9641C37.6602 20.2474 37.4454 19.5517 37.079 18.934C36.7126 18.3164 36.2051 17.7943 35.5981 17.4106C35.8943 16.6381 35.9745 15.7995 35.83 14.9849C35.6854 14.1703 35.3217 13.4105 34.7777 12.7871C34.939 12.7613 35.0865 12.6808 35.1953 12.559ZM28.2613 36.6305C28.9914 36.63 29.7105 36.4537 30.3579 36.1164C31.0054 35.7792 31.5621 35.2909 31.9809 34.693C32.3325 35.2028 32.8022 35.62 33.35 35.9089C33.8977 36.1979 34.5073 36.35 35.1266 36.3524C35.2727 36.3516 35.4186 36.3423 35.5637 36.3246V46.8527H27.5637V36.5715C27.7944 36.6091 28.0276 36.6288 28.2613 36.6305ZM18.125 12.3965C18.1664 12.3139 18.1906 12.2238 18.1962 12.1317C18.2017 12.0395 18.1886 11.9471 18.1574 11.8602C17.9849 11.3827 17.9293 10.8708 17.9954 10.3674C18.0615 9.86403 18.2473 9.38381 18.5372 8.96703C18.8271 8.55025 19.2127 8.20903 19.6617 7.972C20.1107 7.73496 20.6099 7.60901 21.1176 7.6047C21.2268 7.61245 21.3363 7.5952 21.4379 7.55425C21.5394 7.51329 21.6303 7.44973 21.7035 7.36837C21.7676 7.29342 21.8148 7.2055 21.8417 7.11064C21.8687 7.01579 21.8748 6.91622 21.8598 6.81876C21.833 6.65723 21.8189 6.49383 21.8176 6.33009C21.8176 5.48575 22.153 4.67599 22.75 4.07895C23.3471 3.48191 24.1568 3.1465 25.0012 3.1465C25.8455 3.1465 26.6553 3.48191 27.2523 4.07895C27.8494 4.67599 28.1848 5.48575 28.1848 6.33009C28.1835 6.49383 28.1694 6.65723 28.1426 6.81876C28.1303 6.91725 28.1393 7.01723 28.169 7.11192C28.1987 7.20661 28.2485 7.29381 28.3149 7.36759C28.3822 7.44275 28.4648 7.50283 28.557 7.5439C28.6492 7.58496 28.7491 7.60608 28.85 7.60587C29.3605 7.60461 29.8638 7.72646 30.3171 7.96109C30.7705 8.19572 31.1606 8.5362 31.4544 8.95368C31.7482 9.37115 31.9369 9.85331 32.0047 10.3593C32.0725 10.8652 32.0173 11.3801 31.8438 11.8602C31.8127 11.9471 31.7996 12.0395 31.8051 12.1317C31.8107 12.2238 31.8349 12.3139 31.8762 12.3965C31.9175 12.4791 31.9751 12.5525 32.0455 12.6122C32.1159 12.672 32.1977 12.7169 32.2859 12.7442C32.7423 12.8843 33.1613 13.1254 33.5117 13.4496C33.862 13.7739 34.1349 14.1729 34.3099 14.6171C34.4849 15.0612 34.5576 15.5391 34.5225 16.0152C34.4875 16.4914 34.3456 16.9534 34.1074 17.3672C34.0595 17.4507 34.0298 17.5434 34.0201 17.6391C34.0105 17.7349 34.0212 17.8316 34.0515 17.923C34.0818 18.0144 34.131 18.0983 34.196 18.1693C34.261 18.2404 34.3402 18.2969 34.4285 18.3352C34.9725 18.5702 35.4401 18.9526 35.7784 19.4391C36.1167 19.9256 36.3124 20.497 36.3434 21.0888C36.3744 21.6806 36.2394 22.2693 35.9538 22.7885C35.6681 23.3077 35.2431 23.7368 34.7266 24.0274C34.6346 24.0793 34.5559 24.1519 34.4967 24.2394C34.4375 24.3269 34.3993 24.427 34.3853 24.5317C34.3712 24.6364 34.3815 24.7429 34.4156 24.843C34.4496 24.943 34.5063 25.0338 34.5813 25.1082C35.0294 25.552 35.3356 26.119 35.4608 26.7372C35.5861 27.3554 35.5248 27.9968 35.2848 28.5801C35.0448 29.1633 34.6368 29.6621 34.1128 30.0131C33.5887 30.364 32.9721 30.5513 32.3414 30.5512C32.2543 30.5512 32.1695 30.5445 32.0844 30.5379C31.9774 30.5294 31.87 30.5462 31.7707 30.5869C31.6715 30.6276 31.5832 30.6911 31.513 30.7723C31.4428 30.8534 31.3928 30.9499 31.3668 31.0541C31.3409 31.1582 31.3398 31.2669 31.3637 31.3715C31.532 32.1028 31.4362 32.8702 31.0932 33.5376C30.7501 34.2051 30.1821 34.7298 29.4895 35.0187C28.7969 35.3077 28.0244 35.3423 27.3087 35.1165C26.593 34.8906 25.9803 34.4189 25.5789 33.7848C25.5172 33.6877 25.432 33.6077 25.3311 33.5523C25.2303 33.4969 25.117 33.4678 25.002 33.4678C24.8869 33.4678 24.7737 33.4969 24.6728 33.5523C24.572 33.6077 24.4867 33.6877 24.425 33.7848C24.0249 34.4211 23.4121 34.895 22.6956 35.1222C21.9791 35.3495 21.2052 35.3153 20.5115 35.0259C19.8177 34.7365 19.2491 34.2105 18.9065 33.5415C18.5639 32.8724 18.4695 32.1035 18.6402 31.3715C18.6641 31.2669 18.6631 31.1582 18.6371 31.0541C18.6112 30.9499 18.5611 30.8534 18.4909 30.7723C18.4208 30.6911 18.3325 30.6276 18.2332 30.5869C18.1339 30.5462 18.0265 30.5294 17.9195 30.5379C17.8344 30.5445 17.7496 30.5512 17.6625 30.5512C17.0317 30.5515 16.415 30.3643 15.8908 30.0134C15.3666 29.6625 14.9586 29.1637 14.7185 28.5803C14.4785 27.997 14.4173 27.3554 14.5426 26.7372C14.668 26.119 14.9743 25.552 15.4227 25.1082C15.4975 25.0335 15.554 24.9425 15.5877 24.8423C15.6214 24.7421 15.6314 24.6354 15.6169 24.5307C15.6025 24.4259 15.5639 24.326 15.5043 24.2387C15.4447 24.1513 15.3657 24.079 15.2735 24.0274C14.7569 23.7369 14.3317 23.308 14.0459 22.7889C13.7601 22.2698 13.6249 21.6812 13.6557 21.0894C13.6865 20.4976 13.882 19.9262 14.2201 19.4396C14.5583 18.9529 15.0257 18.5704 15.5695 18.3352C15.6579 18.2969 15.7371 18.2404 15.8021 18.1693C15.867 18.0983 15.9163 18.0144 15.9466 17.923C15.9769 17.8316 15.9876 17.7349 15.978 17.6391C15.9683 17.5434 15.9386 17.4507 15.8906 17.3672C15.6525 16.9533 15.5107 16.4911 15.4758 16.0149C15.4409 15.5387 15.5137 15.0607 15.6889 14.6165C15.8641 14.1723 16.1372 13.7733 16.4878 13.4492C16.8384 13.125 17.2575 12.884 17.7141 12.7442C17.8025 12.717 17.8845 12.6722 17.9552 12.6124C18.0258 12.5527 18.0836 12.4792 18.125 12.3965ZM14.8735 36.3524C15.4928 36.35 16.1023 36.1979 16.65 35.9089C17.1978 35.62 17.6675 35.2028 18.0192 34.693C18.5019 35.3924 19.1733 35.9402 19.9553 36.2728C20.7373 36.6054 21.5977 36.709 22.4363 36.5715V46.8527H14.4363V36.3246C14.5814 36.3423 14.7273 36.3516 14.8735 36.3524ZM7.12541 32.5305C7.12638 32.3464 7.14774 32.163 7.18908 31.9836C7.2129 31.8791 7.21178 31.7704 7.18581 31.6663C7.15984 31.5623 7.10974 31.4658 7.03957 31.3847C6.9694 31.3037 6.88113 31.2402 6.7819 31.1996C6.68267 31.1589 6.57526 31.1422 6.46838 31.1508C6.40314 31.1563 6.33752 31.1613 6.27072 31.1613C5.78416 31.1618 5.30847 31.0175 4.90409 30.7469C4.49972 30.4763 4.18493 30.0916 3.99974 29.6417C3.81455 29.1917 3.76732 28.6969 3.86405 28.2201C3.96078 27.7432 4.1971 27.3059 4.54299 26.9637C4.61806 26.8893 4.67487 26.7986 4.70895 26.6985C4.74303 26.5985 4.75346 26.4919 4.73942 26.3872C4.72538 26.2825 4.68724 26.1824 4.62801 26.0949C4.56879 26.0074 4.49008 25.9348 4.39806 25.8828C3.99969 25.6589 3.6718 25.3281 3.45137 24.9278C3.23093 24.5275 3.12672 24.0736 3.15048 23.6172C3.17424 23.1608 3.32503 22.7202 3.58584 22.3449C3.84665 21.9697 4.20711 21.6747 4.62658 21.4934C4.71489 21.4551 4.79412 21.3987 4.85909 21.3277C4.92406 21.2567 4.97329 21.1727 5.00357 21.0814C5.03385 20.99 5.04448 20.8933 5.03478 20.7976C5.02508 20.7018 4.99527 20.6092 4.94728 20.5258C4.7636 20.2067 4.65421 19.8502 4.62726 19.483C4.6003 19.1157 4.65648 18.7471 4.7916 18.4046C4.92673 18.0621 5.13733 17.7544 5.40774 17.5044C5.67816 17.2545 6.00143 17.0687 6.35353 16.961C6.44193 16.9338 6.52392 16.8891 6.59453 16.8294C6.66514 16.7697 6.72292 16.6963 6.76436 16.6136C6.8058 16.5309 6.83005 16.4407 6.83564 16.3484C6.84123 16.2561 6.82805 16.1636 6.79689 16.0766C6.66381 15.709 6.6207 15.3149 6.67116 14.9272C6.72162 14.5396 6.86419 14.1696 7.08693 13.8484C7.30967 13.5271 7.60612 13.2639 7.95146 13.0807C8.29679 12.8975 8.68099 12.7996 9.07189 12.7953C9.17988 12.8021 9.28799 12.7843 9.38811 12.7433C9.48824 12.7023 9.57778 12.6392 9.65002 12.5586C9.71409 12.4837 9.76123 12.3959 9.7882 12.3011C9.81516 12.2063 9.82133 12.1068 9.80627 12.0094C9.78539 11.8847 9.77442 11.7585 9.77345 11.632C9.77345 10.9811 10.032 10.3569 10.4923 9.8966C10.9526 9.43633 11.5768 9.17775 12.2277 9.17775C12.8787 9.17775 13.5029 9.43633 13.9632 9.8966C14.4235 10.3569 14.682 10.9811 14.682 11.632C14.6811 11.7585 14.6701 11.8847 14.6492 12.0094C14.6367 12.1074 14.6454 12.2069 14.6746 12.3012C14.7039 12.3956 14.753 12.4825 14.8188 12.5563C14.9255 12.6763 15.0704 12.7559 15.2289 12.7817C14.6836 13.4049 14.3187 14.165 14.1734 14.9803C14.0281 15.7955 14.1079 16.635 14.4043 17.4082C13.7973 17.792 13.2898 18.314 12.9234 18.9317C12.557 19.5494 12.3421 20.245 12.2964 20.9617C12.2507 21.6784 12.3754 22.3957 12.6603 23.055C12.9452 23.7142 13.3822 24.2965 13.9356 24.7543C13.4801 25.4035 13.2022 26.1605 13.1294 26.9503C13.0566 27.74 13.1915 28.535 13.5206 29.2566C13.8497 29.9781 14.3617 30.6011 15.0058 31.0638C15.6499 31.5266 16.4037 31.8129 17.1926 31.8945C17.1899 31.957 17.1883 32.0188 17.1883 32.0805C17.1884 32.3837 17.2187 32.6861 17.2789 32.9832C17.189 33.467 16.9554 33.9124 16.6085 34.2614C16.2616 34.6103 15.8176 34.8466 15.3344 34.9394C14.8511 35.0322 14.3512 34.9772 13.8997 34.7815C13.4482 34.5859 13.0662 34.2587 12.8035 33.8426C12.7417 33.7456 12.6565 33.6658 12.5557 33.6106C12.4549 33.5553 12.3417 33.5263 12.2268 33.5263C12.1118 33.5263 11.9987 33.5553 11.8979 33.6106C11.7971 33.6658 11.7118 33.7456 11.65 33.8426C11.3658 34.2918 10.9433 34.6364 10.4462 34.8247C9.94906 35.0129 9.40425 35.0345 8.89379 34.8863C8.38332 34.738 7.93485 34.4279 7.61591 34.0027C7.29697 33.5774 7.12482 33.0601 7.12541 32.5285V32.5305ZM11.3832 46.8527V35.8985C11.6911 35.7338 11.9749 35.5276 12.2266 35.2856C12.4779 35.5277 12.7614 35.734 13.0692 35.8985V46.8531L11.3832 46.8527ZM23.8024 46.8527V36.1328C24.2474 35.9066 24.6521 35.6085 25 35.2504C25.3476 35.6084 25.7518 35.9065 26.1965 36.1328V46.8543L23.8024 46.8527ZM36.9297 46.8527V35.8985C37.2379 35.7341 37.5218 35.5278 37.7734 35.2856C38.0248 35.5275 38.3082 35.7337 38.6156 35.8985V46.8531L36.9297 46.8527Z" fill="#5A6368"/>
<path id="Vector_2" d="M28.1445 12.9492C28.0892 13.1217 28.1046 13.309 28.1873 13.4701C28.27 13.6313 28.4132 13.753 28.5855 13.8086C28.6533 13.8307 28.7241 13.8419 28.7953 13.8418C28.94 13.8417 29.0809 13.7957 29.1978 13.7105C29.3148 13.6253 29.4017 13.5053 29.4461 13.3676C29.5937 12.9601 29.6125 12.5171 29.4998 12.0986C29.3871 11.6801 29.1483 11.3064 28.816 11.0281C28.6837 10.9042 28.5075 10.8379 28.3263 10.8438C28.145 10.8497 27.9736 10.9274 27.8496 11.0598C27.7257 11.1921 27.6593 11.3683 27.6653 11.5495C27.6712 11.7308 27.7489 11.9022 27.8813 12.0262C28.0235 12.1273 28.127 12.2737 28.1749 12.4415C28.2227 12.6093 28.212 12.7883 28.1445 12.9492Z" fill="#5A6368"/>
<path id="Vector_3" d="M29.4692 27.8793H29.4665C29.3767 27.8797 29.2879 27.8977 29.2051 27.9324C29.1223 27.9671 29.0471 28.0178 28.9839 28.0815C28.9207 28.1452 28.8706 28.2208 28.8366 28.3039C28.8026 28.3869 28.7852 28.4759 28.7856 28.5657C28.7887 29.2512 28.7192 29.3258 28.3856 29.6836C28.262 29.8163 28.1962 29.9926 28.2026 30.1738C28.209 30.355 28.2871 30.5262 28.4198 30.6498C28.5524 30.7734 28.7288 30.8393 28.91 30.8329C29.0912 30.8264 29.2624 30.7483 29.386 30.6157C29.9559 30.0043 30.1575 29.6 30.1528 28.5598C30.152 28.379 30.0796 28.206 29.9515 28.0784C29.8234 27.9509 29.65 27.8793 29.4692 27.8793Z" fill="#5A6368"/>
<path id="Vector_4" d="M29.4601 15.2668C29.3585 15.4169 29.3207 15.6013 29.355 15.7793C29.3893 15.9573 29.4929 16.1144 29.643 16.216C29.6527 16.2227 30.6172 16.9004 30.7144 17.8586C30.7461 18.2417 30.6964 18.6273 30.5685 18.9898C30.4406 19.3523 30.2374 19.6837 29.9723 19.9621C29.8467 20.0879 29.775 20.2577 29.7725 20.4354C29.7699 20.6131 29.8366 20.7849 29.9585 20.9143C30.0804 21.0436 30.2478 21.1205 30.4254 21.1286C30.6029 21.1366 30.7767 21.0752 30.9098 20.9574C31.325 20.5334 31.6439 20.0246 31.8446 19.4661C32.0453 18.9075 32.1231 18.3121 32.0726 17.7207C31.9098 16.1192 30.4687 15.1254 30.4078 15.084C30.2578 14.9829 30.0738 14.9453 29.8962 14.9796C29.7186 15.0139 29.5618 15.1171 29.4601 15.2668Z" fill="#5A6368"/>
</g>
</g>
</svg>
