<svg width="414" height="896" viewBox="0 0 414 896" fill="none" xmlns="http://www.w3.org/2000/svg">
<g clip-path="url(#clip0)">
<g clip-path="url(#clip1)">
<path d="M-279.055 606.806C-276.675 600.385 -256.53 573.316 -251.753 567.398C-223.171 532.271 -117.83 398.309 -143.052 343.667C-171.493 281.848 -135.392 145.368 -11.1633 89.9701C84.7229 47.2887 208.789 -112.609 300.941 -5.96876C393.093 100.672 549.143 -25.1062 609.547 -18.811C669.951 -12.5158 801.243 -14.5302 768.207 115.529C735.17 245.588 888.018 300.985 693.119 477.88C498.22 654.776 562.803 735.858 413.56 767.712C264.318 799.565 311.641 742.153 165.261 752.855C18.8812 763.557 1.49933 784.835 -142.652 786.975C-277.658 788.989 -302.109 669.255 -279.055 606.806Z" fill="white"/>
<path d="M-16.9505 558.69L755.916 563.589L776.012 515.013C776.012 515.013 701.666 410.922 617.23 455.143C544.954 493.106 457.067 423.44 417.221 420.855C320.537 414.596 294.49 509.978 236.446 509.978C178.401 509.978 154.51 415.412 88.7893 430.651C23.0685 445.891 -16.9505 558.69 -16.9505 558.69Z" fill="#F5F5FC"/>
<path d="M167.189 558.962C167.189 558.962 180.557 560.323 182.713 558.962C184.869 557.602 181.937 553.928 177.538 553.928C173.14 553.928 171.07 553.792 168.827 554.744C167.706 555.153 166.93 556.921 167.189 558.69C167.189 558.69 167.189 558.826 167.189 558.962Z" fill="#E9EDFA"/>
<path d="M171.846 553.112C171.846 553.112 165.895 544.131 168.31 543.859C170.725 543.587 172.967 545.9 173.312 547.669C173.657 549.438 173.657 541.002 175.21 541.274C176.762 541.546 177.624 544.267 177.021 547.941C177.021 547.941 179.091 545.084 181.074 545.084C183.058 545.084 182.713 548.894 181.592 550.254C180.471 551.615 177.107 554.88 177.107 554.88H171.76L171.846 553.112Z" fill="#E9EDFA"/>
<path d="M70.4185 561.548C70.4185 561.548 83.7869 562.908 85.9431 561.548C88.0993 560.187 85.1668 556.513 80.7682 556.513C76.3696 556.513 74.2996 556.377 72.0572 557.33C70.936 557.738 70.1597 559.507 70.4185 561.276C70.3322 561.412 70.4185 561.548 70.4185 561.548Z" fill="#E9EDFA"/>
<path d="M75.0759 555.833C75.0759 555.833 69.1248 546.853 71.5397 546.58C73.9547 546.308 76.1971 548.621 76.5421 550.39C76.8871 552.159 76.8871 543.723 78.4395 543.995C79.992 544.267 80.8545 546.989 80.2508 550.662C80.2508 550.662 82.3207 547.805 84.3044 547.805C86.2881 547.805 85.9431 551.615 84.8219 552.976C83.7007 554.336 80.337 557.602 80.337 557.602H74.9896L75.0759 555.833Z" fill="#E9EDFA"/>
<path d="M15.9099 559.371C15.9099 559.371 29.2783 560.731 31.4345 559.371C33.5907 558.01 30.6583 554.336 26.2596 554.336C21.861 554.336 19.7911 554.2 17.5486 555.153C16.4274 555.561 15.6512 557.33 15.9099 559.099C15.8237 559.235 15.8237 559.235 15.9099 559.371Z" fill="#E9EDFA"/>
<path d="M20.481 553.52C20.481 553.52 14.5299 544.539 16.9449 544.267C19.3598 543.995 21.6023 546.308 21.9472 548.077C22.2922 549.846 22.2922 541.41 23.8447 541.682C25.3971 541.954 26.2596 544.675 25.6559 548.349C25.6559 548.349 27.7258 545.492 29.7095 545.492C31.6932 545.492 31.3482 549.302 30.227 550.662C29.1058 552.023 25.7421 555.289 25.7421 555.289H20.3948L20.481 553.52Z" fill="#E9EDFA"/>
<path d="M133.897 557.874L141.142 558.282L140.797 518.142C140.797 518.142 147.61 507.393 152.181 508.074C156.753 508.754 167.188 512.428 173.053 503.039C178.918 493.65 174.433 483.718 177.624 483.718C180.816 483.718 174.865 472.288 174.865 467.253C174.865 463.988 180.902 412.827 167.62 417.861C155.89 422.215 150.629 388.471 137.864 401.397C127.773 411.602 114.232 405.615 113.284 415.548C111.041 439.496 98.0178 431.876 99.9152 445.755C102.675 465.893 100.778 474.465 106.211 476.642C111.645 478.819 104.831 488.072 107.074 495.283C109.316 502.495 107.505 509.57 113.887 509.57C120.27 509.57 124.323 512.428 128.463 513.924C132.603 515.421 133.466 518.959 133.466 518.959L133.897 557.874Z" fill="#E9EDFA"/>
<path d="M54.7214 557.738L61.9662 558.282L61.6212 508.618C61.6212 508.618 68.4348 495.283 73.0059 496.236C77.577 497.188 88.013 501.542 93.8779 489.977C99.7427 478.411 95.2578 466.029 98.449 466.029C101.64 466.029 95.6891 451.878 95.6891 445.619C95.6891 441.537 101.726 378.266 88.4443 384.525C76.7146 389.968 71.4535 348.059 58.6888 364.115C48.5978 376.769 35.0569 369.285 34.1082 381.667C31.8657 411.33 18.8423 401.941 20.7398 419.086C23.4997 443.986 21.6022 454.599 27.0358 457.321C32.4695 460.042 25.6559 471.472 27.8983 480.452C30.1408 489.432 28.3296 498.141 34.7119 498.141C41.0942 498.141 45.1479 501.678 49.2878 503.447C53.4277 505.216 54.2902 509.706 54.2902 509.706L54.7214 557.738Z" fill="#E9EDFA"/>
<path d="M372.338 596.508L382.252 596.875V416.599C382.252 416.599 408.374 422.71 411.305 414.521C414.236 406.332 413.719 403.521 422.426 403.521C431.133 403.521 434.495 402.788 430.185 391.91C425.874 381.033 419.581 393.255 425.874 380.91C432.167 368.566 445.185 361.11 436.478 353.533C427.771 345.955 413.288 359.644 413.288 345.344C413.288 331.044 408.977 333.733 411.391 319.311C413.805 304.889 414.753 306.233 414.322 291.933C413.891 277.633 414.839 270.667 415.27 266.511C415.702 262.356 408.546 254.9 403.201 247.323C397.856 239.745 396.908 230.212 386.735 232.289C376.563 234.367 373.2 234.978 376.132 247.323C379.063 259.667 365.959 250.011 364.062 254.167C362.166 258.323 365.528 262.356 359.752 265.167C353.976 267.978 355.872 267.245 362.166 272.745C368.459 278.245 364.062 283.011 359.752 283.011C355.441 283.011 350.528 270.667 349.579 276.167C348.631 281.667 342.855 278.856 346.648 294.011C350.441 309.167 350.528 306.355 348.545 309.044C346.562 311.733 346.131 311.733 348.545 315.155C350.959 318.578 337.424 312.466 337.424 319.922C337.424 327.377 336.475 341.922 339.838 352.188C343.2 362.455 326.303 354.266 326.82 359.033C327.337 363.799 327.768 368.688 331.131 370.033C334.493 371.377 343.717 371.377 337.855 374.799C331.993 378.221 319.923 389.221 319.923 391.91C319.923 394.599 320.441 400.832 326.648 403.521C332.855 406.21 327.165 415.866 332.941 416.599C338.717 417.332 346.993 416.599 353.717 413.177C360.442 409.754 369.235 409.021 370.614 414.521C371.994 420.021 374.925 415.866 374.925 415.866L372.338 596.508Z" fill="#BAC6F2"/>
<path d="M103.106 557.874L113.025 558.282V357.584C113.025 357.584 139.158 364.387 142.09 355.27C145.023 346.154 144.505 343.024 153.216 343.024C161.927 343.024 165.291 342.208 160.979 330.098C156.666 317.988 150.37 331.595 156.666 317.852C162.962 304.109 175.986 295.809 167.275 287.373C158.564 278.937 144.074 294.176 144.074 278.257C144.074 262.337 139.762 265.33 142.177 249.274C144.592 233.219 145.54 234.715 145.109 218.795C144.678 202.876 145.627 195.12 146.058 190.494C146.489 185.867 139.33 177.567 133.983 169.131C128.636 160.695 127.687 150.082 117.51 152.395C107.333 154.708 103.969 155.388 106.901 169.131C109.834 182.874 96.724 172.125 94.8266 176.751C92.9291 181.377 96.2928 185.867 90.5142 188.997C84.7356 192.126 86.6331 191.31 92.9291 197.433C99.2252 203.556 94.8266 208.863 90.5142 208.863C86.2018 208.863 81.2857 195.12 80.337 201.243C79.3882 207.366 73.6096 204.236 77.4045 221.109C81.1994 237.981 81.2857 234.851 79.302 237.845C77.3183 240.838 76.8871 240.838 79.302 244.648C81.7169 248.458 68.176 241.655 68.176 249.955C68.176 258.255 67.2273 274.447 70.591 285.876C73.9546 297.306 57.0501 288.19 57.5675 293.496C58.085 298.803 58.5163 304.245 61.8799 305.742C65.2436 307.239 74.4721 307.239 68.6073 311.049C62.7424 314.859 50.6677 327.105 50.6677 330.098C50.6677 333.092 51.1852 340.031 57.3951 343.024C63.6049 346.018 57.9125 356.767 63.6911 357.584C69.4697 358.4 77.7495 357.584 84.4769 353.774C91.2042 349.964 100.001 349.147 101.381 355.27C102.761 361.393 105.694 356.767 105.694 356.767L103.106 557.874Z" fill="#BAC6F2"/>
<path d="M191.252 614.206V646.862H526.756V615.566L191.252 614.206Z" fill="#B1C1F2"/>
<path d="M227.476 502.631L226.958 615.974H237.049L236.963 502.631H227.476Z" fill="#B1C1F2"/>
<path d="M209.364 502.631C209.364 502.631 211.951 487.664 218.851 487.664L497.69 487.8C498.639 487.8 499.588 488.208 500.364 488.888C502.693 490.929 507.35 495.691 508.644 502.631H209.364V502.631Z" fill="#BAC6F2"/>
<path d="M207.898 519.231V531.885L508.385 532.157L508.126 519.911L207.898 519.231Z" fill="#BAC6F2"/>
<path d="M207.898 546.444V559.099L508.385 559.371L508.126 547.125L207.898 546.444Z" fill="#BAC6F2"/>
<path d="M207.898 577.74V590.394L508.385 590.666L508.126 578.42L207.898 577.74Z" fill="#BAC6F2"/>
<path d="M207.898 602.232V614.886L508.385 615.158L508.126 602.912L207.898 602.232Z" fill="#BAC6F2"/>
<path d="M221.783 646.862L221.956 729.318H245.76L246.45 646.862H221.783Z" fill="#BAC6F2"/>
<path d="M233.082 241.519C245.228 241.519 255.075 225.984 255.075 206.822C255.075 187.659 245.228 172.125 233.082 172.125C220.935 172.125 211.089 187.659 211.089 206.822C211.089 225.984 220.935 241.519 233.082 241.519Z" fill="#E9EDFA"/>
<path d="M-9.70569 698.295L7.9751 836.811L9.6138 835.178L-9.70569 698.295Z" fill="url(#paint0_linear)"/>
<path d="M3.05895 724.148C3.05895 724.148 -10.3957 761.158 -14.4493 768.778C-19.5379 778.438 -15.743 752.45 -13.9318 746.463C-12.0344 740.203 -4.35835 729.454 3.05895 724.148Z" fill="url(#paint1_linear)"/>
<path d="M9.87253 746.735C9.87253 746.735 4.61142 759.933 -1.42593 770.683C-5.47958 777.894 -10.482 783.065 -12.3794 785.65C-18.503 793.678 -11.4307 770.274 -9.01574 764.832C-6.51456 759.253 1.93773 749.728 9.87253 746.735Z" fill="url(#paint2_linear)"/>
<path d="M11.9424 767.417C11.9424 767.417 5.99133 782.384 -0.735991 794.494C-5.22087 802.658 -10.7407 808.645 -12.8969 811.503C-19.7105 820.619 -11.7757 794.358 -8.92953 788.235C-6.1696 781.84 3.14516 770.955 11.9424 767.417Z" fill="url(#paint3_linear)"/>
<path d="M17.376 802.114C17.376 802.114 6.76755 809.461 -0.994746 817.081C-10.0508 825.926 -11.6032 826.742 -14.1044 827.558C-21.953 829.872 -7.89457 806.332 -4.09966 803.338C-0.218515 800.209 9.18249 798.304 17.376 802.114Z" fill="url(#paint4_linear)"/>
<path d="M-6.16952 761.838C-6.16952 761.838 -6.42827 761.43 -6.34202 761.702C-5.56579 763.471 -0.563445 772.996 -0.0459607 775.173C0.557771 777.486 -0.304705 772.179 -0.304705 772.179L-6.16952 761.838Z" fill="url(#paint5_linear)"/>
<path d="M-4.27206 776.942C-4.27206 776.942 -4.5308 776.533 -4.44456 776.806C-3.66833 778.574 1.4203 788.507 1.93779 790.684C2.54152 792.997 1.5928 787.147 1.5928 787.147L-4.27206 776.942Z" fill="url(#paint6_linear)"/>
<path d="M-26.869 769.458C-26.869 769.458 -9.79197 788.643 -5.39333 791.773C0.29902 795.855 -7.29078 779.391 -9.70572 775.989C-12.2931 772.723 -20.1417 769.186 -26.869 769.458Z" fill="url(#paint7_linear)"/>
<path d="M-3.58209 792.181C-3.58209 792.181 -3.75458 792.045 -3.58209 792.181C-2.71961 794.358 3.49021 805.924 4.18019 808.645C4.95641 811.502 3.8352 804.427 3.8352 804.427L-3.58209 792.181Z" fill="url(#paint8_linear)"/>
<path d="M-28.249 789.324C-28.249 789.324 -21.7804 795.855 -15.2256 800.345C-10.827 803.339 -5.9971 804.291 -4.09965 805.107C2.02395 807.557 -7.54956 794.63 -10.3957 792.045C-13.2419 789.46 -21.5217 787.146 -28.249 789.324Z" fill="url(#paint9_linear)"/>
<path d="M-2.11584 804.699C-2.11584 804.699 -2.28834 804.427 -2.11584 804.699C-1.25336 806.876 5.3877 819.53 6.07768 822.116C6.25017 822.796 5.47395 816.945 5.47395 816.945L-2.11584 804.699Z" fill="url(#paint10_linear)"/>
<path d="M-26.179 805.38C-26.179 805.38 -18.9342 812.863 -11.5169 817.762C-6.51454 821.163 -1.16718 822.388 0.98901 823.204C7.88883 826.062 -2.97838 811.639 -6.16955 808.645C-9.53321 805.788 -18.6755 803.066 -26.179 805.38Z" fill="url(#paint11_linear)"/>
<path d="M-24.1954 833.137C-24.1954 833.137 -14.6219 832.593 -7.29083 833.817C1.33394 835.178 2.7139 834.906 4.78385 834.09C11.3387 831.368 -3.75467 822.252 -7.29083 822.252C-10.9132 822.116 -18.503 825.926 -24.1954 833.137Z" fill="url(#paint12_linear)"/>
<path d="M3.31769 823.204C3.31769 823.204 2.9727 822.66 3.05895 822.796C3.57643 823.885 6.85384 828.239 7.11258 829.735C7.11258 830.144 6.85383 827.014 6.85383 827.014L3.31769 823.204Z" fill="url(#paint13_linear)"/>
<path d="M5.56009 832.457C5.56009 832.457 5.30135 832.321 5.3876 832.321C5.64634 832.865 7.8888 834.362 7.8888 835.314C7.8888 835.45 8.0613 833.681 8.0613 833.681L5.56009 832.457Z" fill="url(#paint14_linear)"/>
<path d="M0.040306 697.206C0.040306 697.206 -0.56343 722.787 -1.77091 728.91C-3.23713 736.53 -3.92711 723.195 -3.75462 720.61C-3.58212 718.025 -3.15088 703.465 0.040306 697.206Z" fill="url(#paint15_linear)"/>
<path d="M5.47392 706.187C5.47392 706.187 2.45525 735.849 0.81654 742.381C-1.33965 750.681 -1.33965 734.217 -0.99466 731.359C-0.563422 728.502 1.85151 711.902 5.47392 706.187Z" fill="url(#paint16_linear)"/>
<path d="M8.5788 719.113C8.5788 719.113 4.6114 750.136 2.9727 757.076C0.816503 765.92 1.07525 747.415 1.67898 742.245C2.36896 736.938 4.95639 725.236 8.5788 719.113Z" fill="url(#paint17_linear)"/>
<path d="M1.85151 759.253C1.85151 759.253 1.93776 758.709 1.93776 758.845C1.85151 761.158 1.16152 773.812 1.33401 776.261C1.50651 778.846 0.902771 773.54 0.902771 773.54L1.85151 759.253Z" fill="url(#paint18_linear)"/>
<path d="M10.6487 733.536C10.6487 733.536 6.68135 764.559 5.04264 771.499C2.88645 780.343 3.14519 761.838 3.74893 756.668C4.43891 751.361 7.02634 739.659 10.6487 733.536Z" fill="url(#paint19_linear)"/>
<path d="M3.92144 773.676C3.92144 773.676 4.00768 773.132 4.00768 773.268C3.92144 775.581 3.23146 788.643 3.40396 790.956C3.57645 793.542 2.80023 787.691 2.80023 787.691L3.92144 773.676Z" fill="url(#paint20_linear)"/>
<path d="M14.3574 745.918C14.3574 745.918 9.26878 778.166 7.54383 785.106C5.38764 793.95 6.07762 772.996 6.68135 767.689C7.28509 762.382 10.735 751.905 14.3574 745.918Z" fill="url(#paint21_linear)"/>
<path d="M6.59512 787.011C6.59512 787.011 6.59512 786.738 6.59512 787.011C6.59512 789.732 5.6464 805.38 5.81889 808.237C5.99139 811.366 5.12891 804.427 5.12891 804.427L6.59512 787.011Z" fill="url(#paint22_linear)"/>
<path d="M19.0148 761.294C17.7211 768.641 16.0824 775.853 14.3575 782.929C12.6325 789.596 10.3038 795.038 9.44134 797.488C6.68141 805.379 9.1826 785.378 10.1313 780.479C11.1663 775.581 15.0474 765.784 19.0148 761.294Z" fill="url(#paint23_linear)"/>
<path d="M8.32007 798.984C8.32007 798.984 8.40632 798.712 8.32007 798.984C8.32007 801.706 7.28512 818.578 7.54386 821.299C7.63011 821.98 6.85388 816.401 6.85388 816.401L8.32007 798.984Z" fill="url(#paint24_linear)"/>
<path d="M21.171 776.669C21.171 776.669 18.8423 789.868 15.9961 801.025C14.0124 808.509 11.5112 814.632 10.5625 817.489C7.54385 826.47 10.3038 804.019 11.425 798.44C12.46 792.861 16.7724 781.84 21.171 776.669Z" fill="url(#paint25_linear)"/>
<path d="M25.742 801.842C25.742 801.842 20.6534 810.55 16.9448 818.442C12.6324 827.83 11.9424 828.919 10.6487 830.144C6.68131 834.226 12.8049 812.047 14.6161 808.645C16.5136 805.243 21.2572 801.161 25.742 801.842Z" fill="url(#paint26_linear)"/>
<path d="M9.18255 819.666C9.18255 819.666 9.2688 818.986 9.2688 819.122C9.18255 820.619 8.32008 827.286 8.57882 828.783C8.66507 829.191 8.14758 826.198 8.14758 826.198L9.18255 819.666Z" fill="url(#paint27_linear)"/>
<path d="M9.87259 829.599C9.87259 829.599 9.95884 829.191 9.95884 829.327C9.87259 830.008 9.01014 833.409 9.26888 834.09C9.35512 834.226 8.83765 832.865 8.83765 832.865L9.87259 829.599Z" fill="url(#paint28_linear)"/>
<path d="M37.7306 727.957L10.1313 833.817L8.66504 831.913L37.7306 727.957Z" fill="url(#paint29_linear)"/>
<path d="M46.1828 715.031C46.1828 715.031 40.7492 726.733 37.8168 727.957C37.8168 727.821 38.938 718.433 46.1828 715.031Z" fill="url(#paint30_linear)"/>
<path d="M50.064 725.644C50.064 725.644 42.2155 730.951 39.1968 729.998C39.1968 729.998 42.5605 723.604 50.064 725.644Z" fill="url(#paint31_linear)"/>
<path d="M41.6117 704.146C41.6117 704.146 40.8355 723.739 37.6443 727.005C37.7305 727.005 33.8494 712.99 41.6117 704.146Z" fill="url(#paint32_linear)"/>
<path d="M50.4952 733.264C50.4952 733.264 41.0942 741.02 38.3343 743.061C37.6443 743.469 37.2993 743.605 37.0406 743.469C36.3506 742.925 37.3856 739.931 38.3343 738.299C39.628 735.849 44.8891 730.543 50.4952 733.264Z" fill="url(#paint33_linear)"/>
<path d="M37.0406 743.061C37.0406 743.061 37.1268 742.925 37.0406 743.061C36.3506 744.013 32.2108 749.456 31.6933 750.681C31.1758 752.041 32.1245 748.64 32.1245 748.64L37.0406 743.061Z" fill="url(#paint34_linear)"/>
<path d="M39.283 729.862C39.283 729.862 39.3693 729.862 39.3693 729.999C38.5931 730.679 36.2644 734.897 35.7469 735.986C35.2294 737.346 36.0057 734.625 36.0057 734.625L39.283 729.862Z" fill="url(#paint35_linear)"/>
<path d="M49.6328 740.068C49.6328 740.068 39.7144 753.402 36.2645 754.899C31.8658 756.668 36.0057 748.095 37.0407 746.871C38.1619 745.782 43.9405 738.299 49.6328 740.068Z" fill="url(#paint36_linear)"/>
<path d="M39.283 729.862C39.283 729.862 39.3693 729.862 39.3693 729.999C38.5931 730.679 36.2644 734.897 35.7469 735.986C35.2294 737.346 36.0057 734.625 36.0057 734.625L39.283 729.862Z" fill="url(#paint37_linear)"/>
<path d="M34.6257 754.082C34.6257 754.082 34.7119 754.082 34.6257 754.082C33.8494 755.171 29.2783 761.294 28.6746 762.655C28.0709 764.151 29.1921 760.478 29.1921 760.478L34.6257 754.082Z" fill="url(#paint38_linear)"/>
<path d="M52.3927 754.355C52.3927 754.355 38.3343 765.92 34.1944 766.737C28.847 767.825 34.7119 758.573 36.2644 757.62C37.8168 756.668 46.3554 751.633 52.3927 754.355Z" fill="url(#paint39_linear)"/>
<path d="M32.2106 766.056C32.2106 766.056 32.4694 765.92 32.3831 765.92C31.5207 767.009 26.432 772.587 25.9145 774.084C25.2246 775.717 26.3458 771.907 26.3458 771.907L32.2106 766.056Z" fill="url(#paint40_linear)"/>
<path d="M51.1853 766.873C51.1853 766.873 35.6607 777.622 31.3483 778.71C25.7422 780.071 32.8145 770.138 35.3157 768.233C37.9031 766.464 44.9754 764.151 51.1853 766.873Z" fill="url(#paint41_linear)"/>
<path d="M29.2783 778.03C29.2783 778.03 29.5371 777.894 29.4508 777.894C28.5883 779.119 23.241 785.106 22.551 786.738C21.861 788.507 23.0685 784.425 23.0685 784.425L29.2783 778.03Z" fill="url(#paint42_linear)"/>
<path d="M48.2528 778.438C48.2528 778.438 32.7282 789.188 28.4158 790.276C22.8097 791.637 29.882 781.704 32.3832 779.799C34.9706 778.03 42.0429 775.853 48.2528 778.438Z" fill="url(#paint43_linear)"/>
<path d="M26.3459 789.596C26.3459 789.596 26.6046 789.46 26.5184 789.46C25.6559 790.684 20.136 796.807 19.4461 798.44C18.7561 800.209 20.0498 795.719 20.0498 795.719L26.3459 789.596Z" fill="url(#paint44_linear)"/>
<path d="M47.8216 791.501C47.8216 791.501 30.572 801.025 26.1734 802.114C20.5672 803.475 28.9333 792.725 31.4345 790.956C34.0219 789.052 41.6117 788.916 47.8216 791.501Z" fill="url(#paint45_linear)"/>
<path d="M24.3621 801.706C24.3621 801.706 24.5346 801.57 24.3621 801.706C23.3272 803.202 16.6861 810.414 15.9099 812.319C14.9611 814.36 16.5136 809.053 16.5136 809.053L24.3621 801.706Z" fill="url(#paint46_linear)"/>
<path d="M47.3903 808.101C43.1642 810.006 38.8518 811.503 34.4531 812.455C30.1408 813.271 25.6559 812.455 23.7584 812.319C17.8936 812.183 27.8121 805.107 30.6583 804.019C33.5044 802.794 41.353 803.883 47.3903 808.101Z" fill="url(#paint47_linear)"/>
<path d="M22.0334 811.366C22.0334 811.366 22.2059 811.23 22.0334 811.366C20.9985 812.863 13.8399 820.755 13.0637 822.66C12.8912 823.068 14.0124 818.578 14.0124 818.578L22.0334 811.366Z" fill="url(#paint48_linear)"/>
<path d="M44.1992 820.347C44.1992 820.347 36.8681 823.885 29.7096 825.245C24.8797 826.198 19.8773 825.381 17.8073 825.245C11.2525 825.109 22.3785 817.217 25.5697 815.993C28.7608 814.768 37.4719 815.857 44.1992 820.347Z" fill="url(#paint49_linear)"/>
<path d="M40.1454 842.118C40.1454 842.118 31.3482 838.308 24.5346 836.675C16.4273 834.77 15.2198 834.09 13.4086 832.729C7.63005 828.239 22.2922 826.198 25.4833 827.286C28.6745 828.511 35.4018 834.226 40.1454 842.118Z" fill="url(#paint50_linear)"/>
<path d="M15.4787 824.429C15.4787 824.429 15.8237 824.157 15.8237 824.293C15.2199 824.973 11.8563 827.286 11.5113 828.511C11.425 828.783 11.9425 826.47 11.9425 826.47L15.4787 824.429Z" fill="url(#paint51_linear)"/>
<path d="M12.6324 831.096C12.6324 831.096 12.8912 830.96 12.8049 831.096C12.4599 831.504 10.3037 831.776 10.3037 832.593C10.3037 832.729 10.3037 831.232 10.3037 831.232L12.6324 831.096Z" fill="url(#paint52_linear)"/>
<path d="M38.593 712.31C38.593 712.31 36.2644 726.597 36.6956 730.951C36.7818 731.087 39.628 723.739 38.593 712.31Z" fill="url(#paint53_linear)"/>
<path d="M33.7632 713.943C33.7632 713.943 34.3669 727.277 35.6607 730.543C36.2644 724.828 35.5744 718.977 33.7632 713.943Z" fill="url(#paint54_linear)"/>
<path d="M43.7679 711.221C43.7679 711.221 37.2131 724.42 37.1268 730.543C37.1268 730.543 43.1642 726.733 43.7679 711.221Z" fill="url(#paint55_linear)"/>
<path d="M31.0032 718.161C31.0032 718.161 31.262 735.033 31.4345 739.795C31.4345 740.884 31.5207 741.428 31.6932 741.564C32.1245 742.108 32.7282 738.843 33.0732 736.666C33.4182 733.536 33.6769 723.603 31.0032 718.161Z" fill="url(#paint56_linear)"/>
<path d="M31.7795 741.292C31.6932 742.789 31.0895 751.497 30.7445 752.858C30.3995 754.354 31.3482 751.089 31.3482 751.089L31.7795 741.292Z" fill="url(#paint57_linear)"/>
<path d="M35.5744 730.407C35.5744 730.407 35.5744 730.271 35.5744 730.407C35.5744 731.767 34.7982 737.346 34.5394 738.707C34.1944 740.203 34.8844 737.618 34.8844 737.618L35.5744 730.407Z" fill="url(#paint58_linear)"/>
<path d="M28.847 723.603C28.847 723.603 27.3808 744.557 27.8983 749.864C28.5883 756.667 30.3132 745.918 30.3995 743.877C30.4857 741.836 31.262 729.726 28.847 723.603Z" fill="url(#paint59_linear)"/>
<path d="M35.5744 730.407C35.5744 730.407 35.5744 730.271 35.5744 730.407C35.5744 731.767 34.7982 737.346 34.5394 738.707C34.1944 740.203 34.8844 737.618 34.8844 737.618L35.5744 730.407Z" fill="url(#paint60_linear)"/>
<path d="M28.6745 751.361C28.6745 751.361 28.6745 751.225 28.6745 751.361C28.5883 752.994 27.8121 762.655 27.5533 764.287C27.2083 765.92 28.1571 762.246 28.1571 762.246L28.6745 751.361Z" fill="url(#paint61_linear)"/>
<path d="M23.0685 728.91C23.0685 728.91 23.4135 753.946 24.4484 759.933C25.7422 767.417 27.1221 754.082 27.0359 751.633C26.7771 749.048 25.9147 734.761 23.0685 728.91Z" fill="url(#paint62_linear)"/>
<path d="M25.3131 761.838C25.3131 761.838 25.3131 761.43 25.3131 761.566C25.2266 763.335 24.8808 773.268 24.5349 774.901C24.189 776.806 25.2266 772.996 25.2266 772.996L25.3131 761.838Z" fill="url(#paint63_linear)"/>
<path d="M19.101 738.299C19.101 738.299 20.136 764.832 21.171 770.954C22.4647 778.846 23.6722 763.879 23.4997 759.389C23.4134 754.899 21.9472 744.422 19.101 738.299Z" fill="url(#paint64_linear)"/>
<path d="M22.1197 773.132C22.1197 773.132 22.1197 772.723 22.1197 772.86C22.0334 774.764 21.6022 785.242 21.2572 787.147C20.9122 789.188 21.9472 785.106 21.9472 785.106L22.1197 773.132Z" fill="url(#paint65_linear)"/>
<path d="M15.9961 749.184C15.9961 749.184 17.0311 775.717 18.066 781.84C19.3598 789.732 20.5672 774.764 20.3947 770.274C20.3085 765.784 18.8423 755.443 15.9961 749.184Z" fill="url(#paint66_linear)"/>
<path d="M19.0148 784.017C19.0148 784.017 19.0148 783.609 19.0148 783.745C18.9285 785.65 18.4111 796.535 18.0661 798.304C17.7211 800.345 18.8423 795.855 18.8423 795.855L19.0148 784.017Z" fill="url(#paint67_linear)"/>
<path d="M11.6838 757.892C11.6838 757.892 13.7537 785.786 14.7887 792.045C16.0824 799.937 17.2036 782.656 17.0311 778.302C16.8586 773.812 14.5299 764.151 11.6838 757.892Z" fill="url(#paint68_linear)"/>
<path d="M15.3924 794.086C15.3924 794.086 15.3924 793.814 15.3924 794.086C15.1337 796.263 14.7887 809.326 14.3574 811.503C13.9261 813.952 15.3062 808.645 15.3062 808.645L15.3924 794.086Z" fill="url(#paint69_linear)"/>
<path d="M6.07764 768.778C6.68137 775.173 7.54385 781.568 8.66507 787.963C9.70004 793.95 11.425 799.12 12.0287 801.434C13.9262 808.781 13.3224 791.773 12.805 787.419C12.2012 783.065 9.35505 773.812 6.07764 768.778Z" fill="url(#paint70_linear)"/>
<path d="M12.805 802.93C12.805 802.93 12.805 802.794 12.805 802.93C12.5462 805.107 12.115 819.122 11.6837 821.436C11.5975 821.98 12.7187 817.626 12.7187 817.626L12.805 802.93Z" fill="url(#paint71_linear)"/>
<path d="M2.80023 780.479C3.49021 787.691 4.43894 794.902 5.64641 802.114C6.76763 808.917 8.66509 814.768 9.35507 817.353C11.425 825.654 10.735 806.604 10.1313 801.706C9.52757 796.535 6.50889 786.194 2.80023 780.479Z" fill="url(#paint72_linear)"/>
<path d="M-3.49585 799.257C-3.49585 799.257 0.557785 808.101 3.23146 815.857C6.42261 824.973 7.02634 826.062 8.06131 827.558C11.425 832.185 7.54383 812.183 6.16387 808.781C4.78391 805.244 0.730277 800.209 -3.49585 799.257Z" fill="url(#paint73_linear)"/>
<path d="M10.304 819.394C10.304 819.258 10.304 818.986 10.304 818.85C10.2176 820.075 10.477 825.79 10.2176 826.878C10.1311 827.15 10.8228 824.973 10.8228 824.973L10.304 819.394Z" fill="url(#paint74_linear)"/>
<path d="M8.92411 827.286C8.92411 827.286 8.92411 826.878 8.83765 827.014C8.83765 827.558 9.35645 830.688 9.09705 831.232C9.01058 831.368 9.52939 830.416 9.52939 830.416L8.92411 827.286Z" fill="url(#paint75_linear)"/>
<path d="M-2.89215 483.99L13.4087 580.869L15.0474 579.781L-2.89215 483.99Z" fill="url(#paint76_linear)"/>
<path d="M2.19651 475.826C2.19651 475.826 -8.06696 501.134 -11.7756 506.441C-16.433 513.108 -13.8456 497.052 -12.2069 492.834C-10.5681 488.48 -4.7033 479.499 2.19651 475.826Z" fill="url(#paint77_linear)"/>
<path d="M4.09397 489.568C4.09397 489.568 -6.1695 514.877 -9.87815 520.183C-14.5355 526.987 -11.9481 510.795 -10.3094 506.577C-8.58444 502.223 -2.80584 493.106 4.09397 489.568Z" fill="url(#paint78_linear)"/>
<path d="M8.92384 502.087C8.92384 502.087 -3.58211 528.075 -7.20452 533.382C-11.8619 540.185 -8.41199 521.952 -6.77328 517.734C-5.04833 513.244 2.024 505.76 8.92384 502.087Z" fill="url(#paint79_linear)"/>
<path d="M15.2199 517.87C15.2199 517.87 10.3037 527.123 4.78389 534.607C1.07524 539.641 -3.58213 543.315 -5.30709 545.084C-10.9132 550.662 -4.44461 534.334 -2.20217 530.525C0.126516 526.715 7.8888 519.911 15.2199 517.87Z" fill="url(#paint80_linear)"/>
<path d="M17.1174 532.293C17.1174 532.293 11.6838 542.771 5.38771 551.207C1.16157 556.922 -3.92706 561.003 -5.91076 563.044C-12.2068 569.44 -4.87578 551.071 -2.28834 546.716C0.385337 542.362 9.01012 534.743 17.1174 532.293Z" fill="url(#paint81_linear)"/>
<path d="M22.1197 556.649C22.1197 556.649 12.2875 561.82 5.12891 567.126C-3.23711 573.249 -4.70332 573.93 -7.03201 574.474C-14.3631 576.107 -1.33966 559.643 2.19649 557.466C5.90514 555.289 14.5299 553.928 22.1197 556.649Z" fill="url(#paint82_linear)"/>
<path d="M-4.35832 463.035C-4.35832 463.035 -5.56579 479.499 -2.71961 483.309C-2.80586 483.309 2.28276 472.832 -4.35832 463.035Z" fill="url(#paint83_linear)"/>
<path d="M-3.75458 496.78C-3.15084 497.732 0.299089 503.583 0.644082 504.808C0.989074 506.033 0.471582 502.903 0.471582 502.903L-3.75458 496.78Z" fill="url(#paint84_linear)"/>
<path d="M-2.46087 506.849C-2.46087 506.849 -2.54712 506.849 -2.46087 506.849C-1.85714 507.937 2.02402 514.605 2.45526 515.829C2.8865 517.19 2.19652 513.788 2.19652 513.788L-2.46087 506.849Z" fill="url(#paint85_linear)"/>
<path d="M-19.7104 501.406C-19.7104 501.406 -7.29076 515.557 -3.32336 517.598C1.76526 520.183 -3.06462 510.523 -4.35833 509.298C-5.7383 507.937 -13.5006 500.998 -19.7104 501.406Z" fill="url(#paint86_linear)"/>
<path d="M-1.25341 517.598C-1.25341 517.598 -1.4259 517.326 -1.4259 517.462C-0.735922 518.687 3.57646 524.81 4.09395 526.306C4.61143 527.939 3.92145 524.265 3.92145 524.265L-1.25341 517.598Z" fill="url(#paint87_linear)"/>
<path d="M-19.7104 512.155C-19.7104 512.155 -5.82457 526.034 -1.68468 528.347C3.57643 531.205 -2.20216 520.728 -4.53085 518.415C-6.77329 515.965 -13.4144 511.883 -19.7104 512.155Z" fill="url(#paint88_linear)"/>
<path d="M0.385346 528.483C0.385346 528.483 0.126605 528.211 0.212853 528.347C0.989083 529.572 5.56021 536.239 5.99145 537.872C6.50894 539.505 5.7327 535.695 5.7327 535.695L0.385346 528.483Z" fill="url(#paint89_linear)"/>
<path d="M-17.9855 522.769C-17.9855 522.769 -4.09964 536.648 0.0402497 538.961C5.30136 541.818 -0.477233 531.341 -2.80592 529.028C-5.04836 526.579 -11.6894 522.497 -17.9855 522.769Z" fill="url(#paint90_linear)"/>
<path d="M2.11032 538.961C2.11032 538.961 1.85158 538.689 1.93783 538.825C2.71405 540.049 7.3714 546.989 7.88889 548.485C8.40637 550.118 7.63015 546.036 7.63015 546.036L2.11032 538.961Z" fill="url(#paint91_linear)"/>
<path d="M-18.7617 533.79C-18.7617 533.79 -2.97837 547.125 1.07527 549.438C6.33639 552.295 -0.649687 540.73 -2.97838 538.416C-5.30707 535.967 -12.5519 533.518 -18.7617 533.79Z" fill="url(#paint92_linear)"/>
<path d="M2.80024 549.71C2.80024 549.71 2.62774 549.574 2.80024 549.71C3.57646 551.207 9.35504 559.371 9.95878 561.139C10.6488 563.18 9.70004 558.146 9.70004 558.146L2.80024 549.71Z" fill="url(#paint93_linear)"/>
<path d="M-20.0554 547.669C-20.0554 547.669 -14.1043 552.295 -7.98072 555.289C-3.84083 557.33 0.55781 558.01 2.36901 558.554C8.06137 560.187 -0.822158 551.207 -3.49584 549.438C-6.16952 547.669 -13.7593 546.172 -20.0554 547.669Z" fill="url(#paint94_linear)"/>
<path d="M4.09394 558.418C4.09394 558.418 3.92144 558.282 4.09394 558.418C4.87017 559.915 11.08 568.759 11.6838 570.664C11.8563 571.072 11.1663 566.99 11.1663 566.99L4.09394 558.418Z" fill="url(#paint95_linear)"/>
<path d="M-18.158 558.826C-18.158 558.826 -11.4306 563.997 -4.61705 567.535C-0.0459181 569.848 4.95646 570.664 6.94016 571.345C13.3225 573.386 3.31775 563.181 0.299077 561.14C-2.7196 559.099 -11.1719 557.33 -18.158 558.826Z" fill="url(#paint96_linear)"/>
<path d="M-16.3468 578.284C-16.3468 578.284 -7.54952 577.876 -0.735944 578.692C7.2851 579.645 8.49258 579.509 10.39 578.964C16.4274 577.059 2.45523 570.664 -0.735944 570.664C-4.01336 570.664 -10.9994 573.25 -16.3468 578.284Z" fill="url(#paint97_linear)"/>
<path d="M9.09631 571.345C9.09631 571.345 8.75133 570.936 8.83757 571.072C9.35506 571.889 12.3737 574.882 12.5462 575.971C12.5462 576.243 12.2875 574.066 12.2875 574.066L9.09631 571.345Z" fill="url(#paint98_linear)"/>
<path d="M11.2525 577.876L11.08 577.74C11.3388 578.148 13.4087 579.1 13.4087 579.781C13.4087 579.917 13.5812 578.692 13.5812 578.692L11.2525 577.876Z" fill="url(#paint99_linear)"/>
<path d="M2.28277 473.649C2.28277 473.649 0.385299 484.534 -1.16718 486.847C-1.08093 486.847 -1.42592 479.636 2.28277 473.649Z" fill="url(#paint100_linear)"/>
<path d="M4.61147 478.003C4.61147 478.003 2.71403 491.882 2.1103 495.828C1.9378 496.78 1.85156 497.188 1.67906 497.324C1.24783 497.596 0.902837 494.739 0.81659 492.834C0.644095 490.113 1.42032 481.813 4.61147 478.003Z" fill="url(#paint101_linear)"/>
<path d="M1.59415 497.052C1.50768 498.277 1.24826 505.76 1.4212 506.985C1.59415 508.346 1.07532 505.352 1.07532 505.352L1.59415 497.052Z" fill="url(#paint102_linear)"/>
<path d="M6.07769 483.173C6.07769 483.173 5.47395 501.134 4.43897 505.352C3.05899 510.795 2.45525 501.27 2.62775 499.501C2.714 497.732 3.14524 487.527 6.07769 483.173Z" fill="url(#paint103_linear)"/>
<path d="M3.57777 506.441C3.57777 506.441 3.57777 506.305 3.57777 506.441C3.4913 507.801 3.2319 516.101 3.40484 517.462C3.57778 518.959 3.05896 515.557 3.05896 515.557L3.57777 506.441Z" fill="url(#paint104_linear)"/>
<path d="M11.1663 489.432C11.1663 489.432 8.40638 510.251 6.85393 514.741C4.87024 520.592 4.87024 509.026 5.21523 506.985C5.56022 505.08 7.80265 493.514 11.1663 489.432Z" fill="url(#paint105_linear)"/>
<path d="M5.7327 516.238C5.7327 516.238 5.81895 515.829 5.81895 515.965C5.73271 517.462 5.12898 525.762 5.30147 527.395C5.47396 529.028 4.87024 525.49 4.87024 525.49L5.7327 516.238Z" fill="url(#paint106_linear)"/>
<path d="M14.0125 498.549C14.0125 498.549 10.3901 520.183 8.83763 525.082C6.85393 531.205 7.11267 518.415 7.71641 514.741C8.23389 510.931 10.6488 502.767 14.0125 498.549Z" fill="url(#paint107_linear)"/>
<path d="M7.80259 526.579C7.80259 526.579 7.88883 526.17 7.88883 526.306C7.80259 527.939 7.19886 536.784 7.37136 538.416C7.54385 540.185 6.94012 536.511 6.94012 536.511L7.80259 526.579Z" fill="url(#paint108_linear)"/>
<path d="M15.9961 508.618C15.9961 508.618 12.3737 530.252 10.8213 535.151C8.83757 541.274 9.09632 528.484 9.70005 524.81C10.2175 521.136 12.6325 512.972 15.9961 508.618Z" fill="url(#paint109_linear)"/>
<path d="M9.70006 536.647C9.70006 536.647 9.78631 536.239 9.78631 536.375C9.70006 538.008 9.09634 547.125 9.26883 548.757C9.44132 550.526 8.75134 546.444 8.75134 546.444L9.70006 536.647Z" fill="url(#paint110_linear)"/>
<path d="M19.3599 517.19C19.3599 517.19 14.6162 539.777 13.0638 544.675C11.0801 550.798 11.6838 536.239 12.2875 532.566C12.805 528.892 15.9962 521.544 19.3599 517.19Z" fill="url(#paint111_linear)"/>
<path d="M12.2012 546.036C12.2012 546.036 12.2012 545.9 12.2012 546.036C12.2012 547.941 11.3388 558.826 11.5113 560.867C11.6838 563.045 10.9075 558.146 10.9075 558.146L12.2012 546.036Z" fill="url(#paint112_linear)"/>
<path d="M23.6722 528.075C22.4647 533.246 20.9985 538.28 19.3598 543.179C17.7211 547.805 15.6511 551.615 14.7887 553.384C12.2012 558.963 14.5299 544.948 15.3924 541.546C16.4274 538.008 20.0498 531.205 23.6722 528.075Z" fill="url(#paint113_linear)"/>
<path d="M13.8399 554.472C13.8399 554.472 13.8399 554.2 13.8399 554.472C13.8399 556.377 12.8912 568.215 13.0637 570.12C13.15 570.528 12.3737 566.582 12.3737 566.582L13.8399 554.472Z" fill="url(#paint114_linear)"/>
<path d="M25.6559 538.825C25.6559 538.825 23.4997 548.077 20.826 555.833C19.0148 561.14 16.6861 565.358 15.7374 567.399C12.8912 573.658 15.4786 558.01 16.5136 554.064C17.6348 550.118 21.6022 542.498 25.6559 538.825Z" fill="url(#paint115_linear)"/>
<path d="M29.882 556.377C29.882 556.377 25.1384 562.5 21.7748 568.079C17.8074 574.61 17.1174 575.427 15.9962 576.243C12.2875 579.1 17.9799 563.589 19.6186 561.276C21.3435 558.826 25.7422 555.969 29.882 556.377Z" fill="url(#paint116_linear)"/>
<path d="M14.6162 568.895C14.6162 568.895 14.7024 568.351 14.7024 568.487C14.6162 569.44 13.84 574.202 14.0125 575.29C14.0987 575.563 13.6675 573.522 13.6675 573.522L14.6162 568.895Z" fill="url(#paint117_linear)"/>
<path d="M15.2199 575.835L15.3062 575.563C15.2199 576.107 14.4437 578.42 14.6162 578.964C14.7024 579.1 14.2712 578.148 14.2712 578.148L15.2199 575.835Z" fill="url(#paint118_linear)"/>
<path d="M41.008 504.672L15.3924 578.828L14.0987 577.468L41.008 504.672Z" fill="url(#paint119_linear)"/>
<path d="M48.7703 495.691C48.7703 495.691 43.6817 503.855 41.008 504.672C41.008 504.672 42.043 498.141 48.7703 495.691Z" fill="url(#paint120_linear)"/>
<path d="M52.3927 503.039C52.3927 503.039 45.1479 506.849 42.388 506.032C42.3017 506.169 45.4066 501.678 52.3927 503.039Z" fill="url(#paint121_linear)"/>
<path d="M44.6304 488.072C44.6304 488.072 43.9405 501.678 41.008 503.991C40.9218 503.991 37.3856 494.195 44.6304 488.072Z" fill="url(#paint122_linear)"/>
<path d="M52.824 508.482C52.824 508.482 44.1129 513.924 41.5255 515.285C40.9217 515.557 40.5767 515.693 40.4042 515.557C39.8005 515.149 40.7492 513.108 41.6117 511.883C42.7329 510.251 47.5628 506.577 52.824 508.482Z" fill="url(#paint123_linear)"/>
<path d="M40.318 515.285C40.318 515.285 40.4043 515.285 40.318 515.285C39.7143 515.965 35.8331 519.775 35.4019 520.592C34.8844 521.544 35.7469 519.095 35.7469 519.095L40.318 515.285Z" fill="url(#paint124_linear)"/>
<path d="M42.3879 506.033C42.3879 506.033 42.4742 506.033 42.4742 506.169C41.6979 506.577 39.5417 509.57 39.1105 510.387C38.593 511.339 39.283 509.434 39.283 509.434L42.3879 506.033Z" fill="url(#paint125_linear)"/>
<path d="M51.9615 513.244C51.9615 513.244 42.733 522.633 39.5418 523.585C35.4881 524.81 39.2831 518.823 40.318 518.006C41.353 517.19 46.7004 512.019 51.9615 513.244Z" fill="url(#paint126_linear)"/>
<path d="M42.3879 506.033C42.3879 506.033 42.4742 506.033 42.4742 506.169C41.6979 506.577 39.5417 509.57 39.1105 510.387C38.593 511.339 39.283 509.434 39.283 509.434L42.3879 506.033Z" fill="url(#paint127_linear)"/>
<path d="M38.1619 523.041C37.4719 523.721 33.2458 528.075 32.7283 529.028C32.2108 530.116 33.2458 527.531 33.2458 527.531L38.1619 523.041Z" fill="url(#paint128_linear)"/>
<path d="M54.5489 523.177C54.5489 523.177 41.6117 531.341 37.6443 531.885C32.7282 532.701 38.1618 526.17 39.5418 525.49C41.008 524.81 48.9428 521.272 54.5489 523.177Z" fill="url(#paint129_linear)"/>
<path d="M35.8331 531.341C35.8331 531.341 36.0919 531.205 36.0056 531.205C35.2294 532.021 30.572 535.831 29.9683 536.92C29.3645 538.008 30.3995 535.423 30.3995 535.423L35.8331 531.341Z" fill="url(#paint130_linear)"/>
<path d="M53.4277 532.021C53.4277 532.021 39.1106 539.641 35.0569 540.321C29.8821 541.274 36.4369 534.334 38.7656 532.974C41.1805 531.613 47.6491 530.116 53.4277 532.021Z" fill="url(#paint131_linear)"/>
<path d="M33.1595 539.777C33.1595 539.777 33.4182 539.641 33.332 539.641C32.5557 540.457 27.5534 544.676 26.9496 545.764C26.2597 546.989 27.3809 544.131 27.3809 544.131L33.1595 539.777Z" fill="url(#paint132_linear)"/>
<path d="M50.6678 540.049C50.6678 540.049 36.3506 547.669 32.297 548.349C27.1221 549.302 33.677 542.362 36.0056 541.002C38.4206 539.777 44.9754 538.144 50.6678 540.049Z" fill="url(#paint133_linear)"/>
<path d="M30.3995 547.941C30.3995 547.941 30.6583 547.805 30.572 547.805C29.7958 548.621 24.7072 552.976 24.0172 554.064C23.3272 555.289 24.5347 552.159 24.5347 552.159L30.3995 547.941Z" fill="url(#paint134_linear)"/>
<path d="M50.2365 549.166C50.2365 549.166 34.2806 555.833 30.227 556.649C25.0521 557.602 32.7282 550.118 35.1431 548.757C37.5581 547.397 44.5441 547.397 50.2365 549.166Z" fill="url(#paint135_linear)"/>
<path d="M28.6746 556.377C28.6746 556.377 28.7609 556.241 28.6746 556.377C27.7259 557.466 21.6023 562.5 20.8261 563.725C19.9636 565.086 21.4298 561.412 21.4298 561.412L28.6746 556.377Z" fill="url(#paint136_linear)"/>
<path d="M49.8916 560.731C45.9242 562.092 41.9568 563.045 37.9031 563.725C33.8495 564.269 29.7096 563.725 27.9846 563.589C22.551 563.453 31.6933 558.554 34.367 557.738C37.1269 557.058 44.2855 557.874 49.8916 560.731Z" fill="url(#paint137_linear)"/>
<path d="M26.4322 563.044C26.4322 563.044 26.6047 563.044 26.4322 563.044C25.4835 564.133 18.8424 569.576 18.1524 570.936C17.9799 571.208 19.0149 568.079 19.0149 568.079L26.4322 563.044Z" fill="url(#paint138_linear)"/>
<path d="M46.9591 569.304C46.9591 569.304 40.2318 571.753 33.5045 572.705C29.0196 573.386 24.3622 572.841 22.4647 572.705C16.4274 572.569 26.6909 567.127 29.7096 566.174C32.7282 565.494 40.7493 566.174 46.9591 569.304Z" fill="url(#paint139_linear)"/>
<path d="M43.1642 584.543C43.1642 584.543 35.0569 581.958 28.6745 580.733C21.171 579.372 20.0498 578.964 18.4111 578.012C13.0637 574.882 26.6046 573.386 29.6233 574.202C32.6419 575.154 38.8518 579.1 43.1642 584.543Z" fill="url(#paint140_linear)"/>
<path d="M20.3948 572.161C20.3948 572.161 20.7398 571.889 20.6535 572.025C20.136 572.569 16.9449 574.202 16.6861 575.018C16.5999 575.291 17.1174 573.522 17.1174 573.522L20.3948 572.161Z" fill="url(#paint141_linear)"/>
<path d="M17.8074 576.923C17.8074 576.923 17.9799 576.787 17.9799 576.923C17.7211 577.195 15.6512 577.468 15.6512 578.012C15.6512 578.148 15.6512 577.059 15.6512 577.059L17.8074 576.923Z" fill="url(#paint142_linear)"/>
<path d="M41.7843 493.786C41.7843 493.786 39.6281 503.719 40.0593 506.849C40.0593 506.849 42.733 501.678 41.7843 493.786Z" fill="url(#paint143_linear)"/>
<path d="M37.2994 494.875C37.2994 494.875 37.8169 504.264 39.0243 506.441C39.6281 502.495 39.0243 498.413 37.2994 494.875Z" fill="url(#paint144_linear)"/>
<path d="M46.6142 492.97C46.6142 492.97 40.5768 502.223 40.4905 506.441C40.4043 506.577 46.0104 503.855 46.6142 492.97Z" fill="url(#paint145_linear)"/>
<path d="M34.7119 497.868C34.7119 497.868 34.9707 509.57 35.0569 512.972C35.0569 513.788 35.1432 514.196 35.3156 514.196C35.6606 514.605 36.2644 512.292 36.6094 510.659C37.0406 508.618 37.2131 501.678 34.7119 497.868Z" fill="url(#paint146_linear)"/>
<path d="M35.4881 514.06C35.4018 515.149 34.7981 521.136 34.5394 522.088C34.2806 523.177 35.0569 520.864 35.0569 520.864L35.4881 514.06Z" fill="url(#paint147_linear)"/>
<path d="M39.0243 506.441C39.0243 506.441 38.938 506.305 39.0243 506.441C39.0243 507.393 38.3343 511.339 38.0756 512.292C37.8168 513.38 38.4206 511.475 38.4206 511.475L39.0243 506.441Z" fill="url(#paint148_linear)"/>
<path d="M32.8145 501.678C32.8145 501.678 31.4346 516.374 31.9521 520.047C32.642 524.81 34.1945 517.326 34.2808 515.829C34.367 514.333 34.9708 505.896 32.8145 501.678Z" fill="url(#paint149_linear)"/>
<path d="M39.0243 506.441C39.0243 506.441 38.938 506.305 39.0243 506.441C39.0243 507.393 38.3343 511.339 38.0756 512.292C37.8168 513.38 38.4206 511.475 38.4206 511.475L39.0243 506.441Z" fill="url(#paint150_linear)"/>
<path d="M32.5557 521C32.4695 522.088 31.7795 528.892 31.5208 529.98C31.262 531.205 32.0382 528.484 32.0382 528.484L32.5557 521Z" fill="url(#paint151_linear)"/>
<path d="M27.3809 505.352C27.3809 505.352 27.7258 522.905 28.5883 526.987C29.7958 532.293 31.0895 522.905 30.917 521.136C30.7445 519.367 30.0545 509.57 27.3809 505.352Z" fill="url(#paint152_linear)"/>
<path d="M29.4528 528.483C29.4528 528.483 29.4528 528.211 29.4528 528.347C29.3663 529.572 29.0204 536.511 28.761 537.736C28.4152 539.097 29.3663 536.375 29.3663 536.375L29.4528 528.483Z" fill="url(#paint153_linear)"/>
<path d="M23.7585 511.883C23.7585 511.883 24.7072 530.388 25.6559 534.743C26.7771 540.321 27.9846 529.708 27.8121 526.715C27.7258 523.585 26.4321 516.238 23.7585 511.883Z" fill="url(#paint154_linear)"/>
<path d="M26.5205 536.239V535.967C26.4341 537.328 26.0017 544.675 25.7423 545.9C25.3964 547.261 26.3476 544.403 26.3476 544.403L26.5205 536.239Z" fill="url(#paint155_linear)"/>
<path d="M20.9123 519.639C20.9123 519.639 21.861 538.144 22.8097 542.498C23.9309 548.077 25.1384 537.464 24.9659 534.47C24.8797 531.205 23.4997 523.993 20.9123 519.639Z" fill="url(#paint156_linear)"/>
<path d="M23.6722 543.995V543.723C23.5859 545.084 23.1547 552.703 22.8097 553.928C22.4647 555.289 23.4997 552.159 23.4997 552.159L23.6722 543.995Z" fill="url(#paint157_linear)"/>
<path d="M16.8586 525.626C16.8586 525.626 18.7561 545.22 19.7048 549.574C20.8261 555.153 21.9473 543.043 21.7748 539.913C21.6023 536.784 19.4461 529.98 16.8586 525.626Z" fill="url(#paint158_linear)"/>
<path d="M20.3085 550.935C20.3085 550.935 20.3085 550.798 20.3085 550.935C20.136 552.431 19.7048 561.548 19.3598 563.181C19.0148 564.813 20.2223 561.14 20.2223 561.14L20.3085 550.935Z" fill="url(#paint159_linear)"/>
<path d="M11.6838 533.246C12.2875 537.736 13.0637 542.226 14.0125 546.58C14.9612 550.798 16.5999 554.472 17.1174 556.105C18.8423 561.276 18.2386 549.302 17.8074 546.308C17.3761 543.315 14.7887 536.784 11.6838 533.246Z" fill="url(#paint160_linear)"/>
<path d="M17.9799 557.194C17.9799 557.194 17.9799 557.058 17.9799 557.194C17.8074 558.69 17.3762 568.487 16.9449 570.12C16.8587 570.528 17.8936 567.535 17.8936 567.535L17.9799 557.194Z" fill="url(#paint161_linear)"/>
<path d="M8.6651 541.41C9.26884 546.444 10.2176 551.479 11.2525 556.513C12.2875 561.276 14.0987 565.358 14.7025 567.263C16.6862 573.113 15.9099 559.643 15.3925 556.241C14.9612 552.703 12.115 545.492 8.6651 541.41Z" fill="url(#paint162_linear)"/>
<path d="M2.88647 554.608C2.88647 554.608 6.59512 560.731 9.09631 566.174C12.0287 572.569 12.5462 573.386 13.5812 574.338C16.6861 577.604 13.15 563.589 11.8562 561.276C10.5625 558.826 6.76762 555.289 2.88647 554.608Z" fill="url(#paint163_linear)"/>
<path d="M15.6514 568.759C15.6514 568.623 15.6514 568.487 15.6514 568.351C15.565 569.167 15.8244 573.249 15.565 574.066C15.4785 574.202 16.0838 572.705 16.0838 572.705L15.6514 568.759Z" fill="url(#paint164_linear)"/>
<path d="M14.2715 574.202C14.2715 574.202 14.2715 573.93 14.185 574.066C14.185 574.474 14.6174 576.651 14.4444 576.923C14.3579 577.059 14.8768 576.379 14.8768 576.379L14.2715 574.202Z" fill="url(#paint165_linear)"/>
<path d="M289.414 700.255C289.414 700.255 292.533 668.317 276.09 651.211C259.683 634.106 258.904 634.307 255.643 632.369C253.765 631.166 251.852 633.705 254.013 638.784C256.175 643.928 254.935 645.198 259.258 647.47C263.581 649.741 264.219 659.63 266.381 662.103C268.542 664.575 270.42 665.243 277.012 670.588C283 675.466 288.103 689.23 288.103 694.041C288.103 698.852 293.95 700.522 293.95 700.522L289.414 700.255Z" fill="url(#paint166_linear)"/>
<path d="M288.847 695.778C288.847 695.778 293.029 666.379 278.642 650.476C264.254 634.574 259.258 634.774 256.388 632.837C254.757 631.701 259.222 635.576 261.101 640.253C262.979 644.997 262.518 643.928 265.884 647.403C269.782 651.479 271.413 655.421 273.716 656.223C277.047 657.425 276.055 663.973 281.831 668.851C287.04 673.328 287.713 685.288 287.713 689.765C287.713 694.308 292.816 695.778 292.816 695.778H288.847Z" fill="url(#paint167_linear)"/>
<path d="M303.305 691.435L304.935 688.495C305.715 687.159 306.672 686.157 307.699 685.622C312.767 683.083 328.749 673.662 335.375 650.877C335.446 650.677 335.375 650.41 335.269 650.343H335.233C335.198 650.343 335.163 650.276 335.163 650.276C332.966 649.942 321.59 649.608 306.388 674.063C306.105 674.464 305.857 674.998 305.644 675.466C305.254 676.468 304.616 678.205 304.333 679.074C303.943 680.41 304.723 682.615 303.66 684.553C302.597 686.491 300.293 691.368 300.293 691.368L302.171 693.974L303.305 691.435Z" fill="url(#paint168_linear)"/>
<path d="M294.659 689.564C294.659 689.564 299.017 615.999 287.111 592.88C276.161 571.632 275.984 591.143 276.019 594.484C276.019 594.818 276.09 595.018 276.126 595.285C278.712 604.372 279.598 614.863 278.677 625.019C277.543 635.643 285.623 634.24 286.331 644.73C287.04 655.22 289.839 671.39 289.556 678.806C289.272 686.223 289.237 693.439 289.237 693.439L293.631 693.707L294.659 689.564Z" fill="url(#paint169_linear)"/>
<path d="M294.624 689.765C294.659 689.631 294.694 689.431 294.694 689.23C294.978 684.419 298.628 615.13 287.146 592.814C276.268 571.633 276.09 590.809 276.161 594.284C276.197 594.685 276.303 595.085 276.409 595.419C277.224 597.624 280.803 607.246 283.993 606.177C292.816 603.237 285.02 623.215 289.804 633.906C293.631 642.325 292.356 671.457 292.072 678.94C291.895 683.15 291.505 687.292 290.938 691.368C290.832 692.437 291.222 693.44 291.753 693.64C291.789 693.64 291.824 693.64 291.824 693.64C291.895 693.64 291.966 693.707 292.037 693.707H292.852C293.348 693.774 293.773 693.306 293.986 692.504L294.624 689.765Z" fill="url(#paint170_linear)"/>
<path d="M298.911 694.041C298.911 694.041 299.691 673.662 305.999 661.234C307.77 657.826 310.003 655.488 312.448 654.419C314.326 653.617 317.409 650.744 320.102 641.189C320.102 641.189 325.17 627.625 330.272 623.549C335.34 619.407 330.272 618.939 330.272 618.939C330.272 618.939 315.744 624.151 306.424 640.187C305.821 641.189 305.219 642.124 304.546 642.926C302.136 646.067 295.438 657.759 295.722 692.036L298.911 694.041Z" fill="url(#paint171_linear)"/>
<path d="M311.527 692.437C311.527 692.437 311.739 689.965 310.003 690.032C308.479 690.166 282.823 689.765 282.823 689.765C282.823 689.765 281.618 689.765 281.689 691.502C281.76 693.239 285.658 733.53 286.012 734.331C286.19 734.866 286.438 735.267 286.757 735.4C287.253 735.668 305.254 735.467 305.254 735.467C305.68 735.334 305.998 734.732 306.034 733.931C306.034 733.931 311.562 692.905 311.527 692.437Z" fill="url(#paint172_linear)"/>
<path d="M174.069 694.755C174.069 694.755 177.187 662.817 160.745 645.711C144.338 628.606 143.558 628.807 140.298 626.869C138.42 625.666 136.506 628.205 138.668 633.284C140.829 638.428 139.589 639.698 143.912 641.97C148.236 644.241 148.873 654.13 151.035 656.603C153.197 659.075 155.075 659.743 161.666 665.088C167.655 669.966 172.757 683.73 172.757 688.541C172.757 693.352 178.604 695.022 178.604 695.022L174.069 694.755Z" fill="url(#paint173_linear)"/>
<path d="M173.502 690.278C173.502 690.278 177.683 660.879 163.296 644.976C148.909 629.074 143.912 629.274 141.042 627.337C139.412 626.201 143.877 630.076 145.755 634.753C147.633 639.497 147.172 638.428 150.539 641.903C154.437 645.979 156.067 649.921 158.37 650.723C161.701 651.925 160.709 658.473 166.485 663.351C171.694 667.828 172.368 679.788 172.368 684.265C172.368 688.808 177.47 690.278 177.47 690.278H173.502Z" fill="url(#paint174_linear)"/>
<path d="M187.96 685.935L189.59 682.995C190.369 681.659 191.326 680.657 192.354 680.122C197.421 677.583 213.403 668.162 220.029 645.377C220.1 645.177 220.029 644.91 219.923 644.843H219.888C219.852 644.843 219.817 644.776 219.817 644.776C217.62 644.442 206.245 644.108 191.043 668.563C190.759 668.964 190.511 669.498 190.298 669.966C189.909 670.968 189.271 672.705 188.987 673.574C188.597 674.91 189.377 677.115 188.314 679.053C187.251 680.991 184.948 685.868 184.948 685.868L186.826 688.474L187.96 685.935Z" fill="url(#paint175_linear)"/>
<path d="M179.313 684.064C179.313 684.064 183.672 610.499 171.765 587.38C160.815 566.132 160.638 585.643 160.674 588.984C160.674 589.318 160.745 589.518 160.78 589.785C163.367 598.872 164.253 609.363 163.331 619.519C162.197 630.143 170.277 628.74 170.986 639.23C171.694 649.72 174.494 665.89 174.21 673.306C173.927 680.723 173.891 687.939 173.891 687.939L178.285 688.207L179.313 684.064Z" fill="url(#paint176_linear)"/>
<path d="M179.278 684.265C179.313 684.131 179.349 683.931 179.349 683.73C179.632 678.919 183.282 609.63 171.801 587.314C160.922 566.133 160.745 585.309 160.815 588.784C160.851 589.185 160.957 589.585 161.063 589.919C161.878 592.124 165.458 601.746 168.647 600.677C177.47 597.737 169.674 617.715 174.458 628.406C178.285 636.825 177.01 665.957 176.726 673.44C176.549 677.65 176.159 681.792 175.592 685.868C175.486 686.937 175.876 687.94 176.407 688.14C176.443 688.14 176.478 688.14 176.478 688.14C176.549 688.14 176.62 688.207 176.691 688.207H177.506C178.002 688.274 178.427 687.806 178.64 687.004L179.278 684.265Z" fill="url(#paint177_linear)"/>
<path d="M183.566 688.541C183.566 688.541 184.345 668.162 190.653 655.734C192.425 652.326 194.657 649.988 197.102 648.919C198.98 648.117 202.063 645.244 204.756 635.689C204.756 635.689 209.824 622.125 214.927 618.049C219.994 613.907 214.927 613.439 214.927 613.439C214.927 613.439 200.398 618.651 191.078 634.687C190.476 635.689 189.873 636.624 189.2 637.426C186.79 640.567 180.093 652.259 180.376 686.536L183.566 688.541Z" fill="url(#paint178_linear)"/>
<path d="M196.181 686.937C196.181 686.937 196.393 684.465 194.657 684.532C193.133 684.666 167.477 684.265 167.477 684.265C167.477 684.265 166.272 684.265 166.343 686.002C166.414 687.739 170.312 728.03 170.667 728.831C170.844 729.366 171.092 729.767 171.411 729.9C171.907 730.168 189.908 729.967 189.908 729.967C190.334 729.834 190.653 729.232 190.688 728.431C190.688 728.431 196.216 687.405 196.181 686.937Z" fill="url(#paint179_linear)"/>
</g>
</g>
<defs>
<linearGradient id="paint0_linear" x1="-2.80689" y1="777.469" x2="21.6348" y2="739.416" gradientUnits="userSpaceOnUse">
<stop stop-color="#58CAEA"/>
<stop offset="1" stop-color="#4C4CBF"/>
</linearGradient>
<linearGradient id="paint1_linear" x1="-16.932" y1="747.579" x2="3.08189" y2="747.579" gradientUnits="userSpaceOnUse">
<stop stop-color="#58CAEA"/>
<stop offset="1" stop-color="#4C4CBF"/>
</linearGradient>
<linearGradient id="paint2_linear" x1="-14.7742" y1="767.032" x2="9.9298" y2="767.032" gradientUnits="userSpaceOnUse">
<stop stop-color="#58CAEA"/>
<stop offset="1" stop-color="#4C4CBF"/>
</linearGradient>
<linearGradient id="paint3_linear" x1="-15.5913" y1="790.361" x2="11.9458" y2="790.361" gradientUnits="userSpaceOnUse">
<stop stop-color="#58CAEA"/>
<stop offset="1" stop-color="#4C4CBF"/>
</linearGradient>
<linearGradient id="paint4_linear" x1="-16.4743" y1="813.867" x2="17.3522" y2="813.867" gradientUnits="userSpaceOnUse">
<stop stop-color="#58CAEA"/>
<stop offset="1" stop-color="#4C4CBF"/>
</linearGradient>
<linearGradient id="paint5_linear" x1="-4.22942" y1="769.461" x2="-1.26641" y2="768.659" gradientUnits="userSpaceOnUse">
<stop stop-color="#58CAEA"/>
<stop offset="1" stop-color="#4C4CBF"/>
</linearGradient>
<linearGradient id="paint6_linear" x1="-2.34141" y1="784.754" x2="0.757048" y2="783.915" gradientUnits="userSpaceOnUse">
<stop stop-color="#58CAEA"/>
<stop offset="1" stop-color="#4C4CBF"/>
</linearGradient>
<linearGradient id="paint7_linear" x1="-22.4894" y1="785.829" x2="-5.9126" y2="781.341" gradientUnits="userSpaceOnUse">
<stop stop-color="#58CAEA"/>
<stop offset="1" stop-color="#4C4CBF"/>
</linearGradient>
<linearGradient id="paint8_linear" x1="-1.10775" y1="801.681" x2="2.83416" y2="800.614" gradientUnits="userSpaceOnUse">
<stop stop-color="#58CAEA"/>
<stop offset="1" stop-color="#4C4CBF"/>
</linearGradient>
<linearGradient id="paint9_linear" x1="-24.4312" y1="803.466" x2="-3.74725" y2="797.866" gradientUnits="userSpaceOnUse">
<stop stop-color="#58CAEA"/>
<stop offset="1" stop-color="#4C4CBF"/>
</linearGradient>
<linearGradient id="paint10_linear" x1="0.403214" y1="814.382" x2="4.43609" y2="813.29" gradientUnits="userSpaceOnUse">
<stop stop-color="#58CAEA"/>
<stop offset="1" stop-color="#4C4CBF"/>
</linearGradient>
<linearGradient id="paint11_linear" x1="-21.8624" y1="821.278" x2="1.19065" y2="815.036" gradientUnits="userSpaceOnUse">
<stop stop-color="#58CAEA"/>
<stop offset="1" stop-color="#4C4CBF"/>
</linearGradient>
<linearGradient id="paint12_linear" x1="-22.1111" y1="840.981" x2="6.6866" y2="833.184" gradientUnits="userSpaceOnUse">
<stop stop-color="#58CAEA"/>
<stop offset="1" stop-color="#4C4CBF"/>
</linearGradient>
<linearGradient id="paint13_linear" x1="4.10189" y1="826.932" x2="6.51493" y2="826.279" gradientUnits="userSpaceOnUse">
<stop stop-color="#58CAEA"/>
<stop offset="1" stop-color="#4C4CBF"/>
</linearGradient>
<linearGradient id="paint14_linear" x1="5.88461" y1="834.261" x2="7.97997" y2="833.694" gradientUnits="userSpaceOnUse">
<stop stop-color="#58CAEA"/>
<stop offset="1" stop-color="#4C4CBF"/>
</linearGradient>
<linearGradient id="paint15_linear" x1="-6.52644" y1="717.738" x2="4.71359" y2="714.695" gradientUnits="userSpaceOnUse">
<stop stop-color="#58CAEA"/>
<stop offset="1" stop-color="#4C4CBF"/>
</linearGradient>
<linearGradient id="paint16_linear" x1="-4.38907" y1="730.195" x2="10.8929" y2="726.057" gradientUnits="userSpaceOnUse">
<stop stop-color="#58CAEA"/>
<stop offset="1" stop-color="#4C4CBF"/>
</linearGradient>
<linearGradient id="paint17_linear" x1="-2.23143" y1="744.339" x2="14.2426" y2="739.879" gradientUnits="userSpaceOnUse">
<stop stop-color="#58CAEA"/>
<stop offset="1" stop-color="#4C4CBF"/>
</linearGradient>
<linearGradient id="paint18_linear" x1="-0.714464" y1="769.444" x2="4.38075" y2="768.064" gradientUnits="userSpaceOnUse">
<stop stop-color="#58CAEA"/>
<stop offset="1" stop-color="#4C4CBF"/>
</linearGradient>
<linearGradient id="paint19_linear" x1="-0.156931" y1="758.819" x2="16.3172" y2="754.359" gradientUnits="userSpaceOnUse">
<stop stop-color="#58CAEA"/>
<stop offset="1" stop-color="#4C4CBF"/>
</linearGradient>
<linearGradient id="paint20_linear" x1="1.29987" y1="784.089" x2="6.49509" y2="782.682" gradientUnits="userSpaceOnUse">
<stop stop-color="#58CAEA"/>
<stop offset="1" stop-color="#4C4CBF"/>
</linearGradient>
<linearGradient id="paint21_linear" x1="2.37769" y1="772.032" x2="20.1183" y2="767.229" gradientUnits="userSpaceOnUse">
<stop stop-color="#58CAEA"/>
<stop offset="1" stop-color="#4C4CBF"/>
</linearGradient>
<linearGradient id="paint22_linear" x1="3.31805" y1="799.938" x2="9.66711" y2="798.219" gradientUnits="userSpaceOnUse">
<stop stop-color="#58CAEA"/>
<stop offset="1" stop-color="#4C4CBF"/>
</linearGradient>
<linearGradient id="paint23_linear" x1="4.79947" y1="786.341" x2="24.3666" y2="781.043" gradientUnits="userSpaceOnUse">
<stop stop-color="#58CAEA"/>
<stop offset="1" stop-color="#4C4CBF"/>
</linearGradient>
<linearGradient id="paint24_linear" x1="5.0151" y1="812.101" x2="11.4906" y2="810.348" gradientUnits="userSpaceOnUse">
<stop stop-color="#58CAEA"/>
<stop offset="1" stop-color="#4C4CBF"/>
</linearGradient>
<linearGradient id="paint25_linear" x1="5.29657" y1="804.826" x2="27.1896" y2="798.899" gradientUnits="userSpaceOnUse">
<stop stop-color="#58CAEA"/>
<stop offset="1" stop-color="#4C4CBF"/>
</linearGradient>
<linearGradient id="paint26_linear" x1="7.25153" y1="822.183" x2="29.6225" y2="816.126" gradientUnits="userSpaceOnUse">
<stop stop-color="#58CAEA"/>
<stop offset="1" stop-color="#4C4CBF"/>
</linearGradient>
<linearGradient id="paint27_linear" x1="7.51816" y1="824.893" x2="10.6278" y2="824.051" gradientUnits="userSpaceOnUse">
<stop stop-color="#58CAEA"/>
<stop offset="1" stop-color="#4C4CBF"/>
</linearGradient>
<linearGradient id="paint28_linear" x1="8.68162" y1="832.359" x2="10.6273" y2="831.832" gradientUnits="userSpaceOnUse">
<stop stop-color="#58CAEA"/>
<stop offset="1" stop-color="#4C4CBF"/>
</linearGradient>
<linearGradient id="paint29_linear" x1="17.8367" y1="774.395" x2="32.7767" y2="780.79" gradientUnits="userSpaceOnUse">
<stop stop-color="#58CAEA"/>
<stop offset="1" stop-color="#4C4CBF"/>
</linearGradient>
<linearGradient id="paint30_linear" x1="40.464" y1="719.823" x2="43.4738" y2="721.111" gradientUnits="userSpaceOnUse">
<stop stop-color="#58CAEA"/>
<stop offset="1" stop-color="#4C4CBF"/>
</linearGradient>
<linearGradient id="paint31_linear" x1="41.5209" y1="724.516" x2="49.1073" y2="727.763" gradientUnits="userSpaceOnUse">
<stop stop-color="#58CAEA"/>
<stop offset="1" stop-color="#4C4CBF"/>
</linearGradient>
<linearGradient id="paint32_linear" x1="37.0098" y1="712.736" x2="42.9552" y2="715.281" gradientUnits="userSpaceOnUse">
<stop stop-color="#58CAEA"/>
<stop offset="1" stop-color="#4C4CBF"/>
</linearGradient>
<linearGradient id="paint33_linear" x1="39.9521" y1="734.247" x2="48.4888" y2="737.901" gradientUnits="userSpaceOnUse">
<stop stop-color="#58CAEA"/>
<stop offset="1" stop-color="#4C4CBF"/>
</linearGradient>
<linearGradient id="paint34_linear" x1="33.2913" y1="745.892" x2="35.4319" y2="746.809" gradientUnits="userSpaceOnUse">
<stop stop-color="#58CAEA"/>
<stop offset="1" stop-color="#4C4CBF"/>
</linearGradient>
<linearGradient id="paint35_linear" x1="36.8312" y1="732.545" x2="38.0016" y2="733.046" gradientUnits="userSpaceOnUse">
<stop stop-color="#58CAEA"/>
<stop offset="1" stop-color="#4C4CBF"/>
</linearGradient>
<linearGradient id="paint36_linear" x1="38.1373" y1="743.326" x2="46.646" y2="746.968" gradientUnits="userSpaceOnUse">
<stop stop-color="#58CAEA"/>
<stop offset="1" stop-color="#4C4CBF"/>
</linearGradient>
<linearGradient id="paint37_linear" x1="36.8312" y1="732.545" x2="38.0016" y2="733.046" gradientUnits="userSpaceOnUse">
<stop stop-color="#58CAEA"/>
<stop offset="1" stop-color="#4C4CBF"/>
</linearGradient>
<linearGradient id="paint38_linear" x1="30.5256" y1="757.449" x2="32.8078" y2="758.426" gradientUnits="userSpaceOnUse">
<stop stop-color="#58CAEA"/>
<stop offset="1" stop-color="#4C4CBF"/>
</linearGradient>
<linearGradient id="paint39_linear" x1="36.4205" y1="754.123" x2="50.0177" y2="759.943" gradientUnits="userSpaceOnUse">
<stop stop-color="#58CAEA"/>
<stop offset="1" stop-color="#4C4CBF"/>
</linearGradient>
<linearGradient id="paint40_linear" x1="27.5714" y1="768.763" x2="30.5871" y2="770.054" gradientUnits="userSpaceOnUse">
<stop stop-color="#58CAEA"/>
<stop offset="1" stop-color="#4C4CBF"/>
</linearGradient>
<linearGradient id="paint41_linear" x1="33.9368" y1="765.916" x2="48.8079" y2="772.281" gradientUnits="userSpaceOnUse">
<stop stop-color="#58CAEA"/>
<stop offset="1" stop-color="#4C4CBF"/>
</linearGradient>
<linearGradient id="paint42_linear" x1="24.417" y1="780.971" x2="27.5236" y2="782.3" gradientUnits="userSpaceOnUse">
<stop stop-color="#58CAEA"/>
<stop offset="1" stop-color="#4C4CBF"/>
</linearGradient>
<linearGradient id="paint43_linear" x1="31.007" y1="777.546" x2="45.8782" y2="783.911" gradientUnits="userSpaceOnUse">
<stop stop-color="#58CAEA"/>
<stop offset="1" stop-color="#4C4CBF"/>
</linearGradient>
<linearGradient id="paint44_linear" x1="21.3242" y1="792.573" x2="24.5639" y2="793.96" gradientUnits="userSpaceOnUse">
<stop stop-color="#58CAEA"/>
<stop offset="1" stop-color="#4C4CBF"/>
</linearGradient>
<linearGradient id="paint45_linear" x1="29.1201" y1="789.287" x2="45.6749" y2="796.373" gradientUnits="userSpaceOnUse">
<stop stop-color="#58CAEA"/>
<stop offset="1" stop-color="#4C4CBF"/>
</linearGradient>
<linearGradient id="paint46_linear" x1="18.1256" y1="805.148" x2="22.2233" y2="806.902" gradientUnits="userSpaceOnUse">
<stop stop-color="#58CAEA"/>
<stop offset="1" stop-color="#4C4CBF"/>
</linearGradient>
<linearGradient id="paint47_linear" x1="26.2422" y1="800.871" x2="46.6965" y2="809.626" gradientUnits="userSpaceOnUse">
<stop stop-color="#58CAEA"/>
<stop offset="1" stop-color="#4C4CBF"/>
</linearGradient>
<linearGradient id="paint48_linear" x1="15.6055" y1="814.838" x2="19.7948" y2="816.631" gradientUnits="userSpaceOnUse">
<stop stop-color="#58CAEA"/>
<stop offset="1" stop-color="#4C4CBF"/>
</linearGradient>
<linearGradient id="paint49_linear" x1="20.5458" y1="812.438" x2="43.3181" y2="822.185" gradientUnits="userSpaceOnUse">
<stop stop-color="#58CAEA"/>
<stop offset="1" stop-color="#4C4CBF"/>
</linearGradient>
<linearGradient id="paint50_linear" x1="14.752" y1="823.94" x2="42.7288" y2="835.915" gradientUnits="userSpaceOnUse">
<stop stop-color="#58CAEA"/>
<stop offset="1" stop-color="#4C4CBF"/>
</linearGradient>
<linearGradient id="paint51_linear" x1="12.5023" y1="825.083" x2="14.9453" y2="826.129" gradientUnits="userSpaceOnUse">
<stop stop-color="#58CAEA"/>
<stop offset="1" stop-color="#4C4CBF"/>
</linearGradient>
<linearGradient id="paint52_linear" x1="10.5097" y1="830.704" x2="12.5805" y2="831.59" gradientUnits="userSpaceOnUse">
<stop stop-color="#58CAEA"/>
<stop offset="1" stop-color="#4C4CBF"/>
</linearGradient>
<linearGradient id="paint53_linear" x1="35.5752" y1="719.424" x2="40.7707" y2="721.648" gradientUnits="userSpaceOnUse">
<stop stop-color="#58CAEA"/>
<stop offset="1" stop-color="#4C4CBF"/>
</linearGradient>
<linearGradient id="paint54_linear" x1="31.569" y1="718.975" x2="39.1281" y2="722.211" gradientUnits="userSpaceOnUse">
<stop stop-color="#58CAEA"/>
<stop offset="1" stop-color="#4C4CBF"/>
</linearGradient>
<linearGradient id="paint55_linear" x1="39.7773" y1="720.178" x2="42.5537" y2="721.366" gradientUnits="userSpaceOnUse">
<stop stop-color="#58CAEA"/>
<stop offset="1" stop-color="#4C4CBF"/>
</linearGradient>
<linearGradient id="paint56_linear" x1="27.5995" y1="725.925" x2="36.8729" y2="729.894" gradientUnits="userSpaceOnUse">
<stop stop-color="#58CAEA"/>
<stop offset="1" stop-color="#4C4CBF"/>
</linearGradient>
<linearGradient id="paint57_linear" x1="29.8215" y1="745.785" x2="33.2737" y2="747.263" gradientUnits="userSpaceOnUse">
<stop stop-color="#58CAEA"/>
<stop offset="1" stop-color="#4C4CBF"/>
</linearGradient>
<linearGradient id="paint58_linear" x1="34.0808" y1="733.699" x2="36.4208" y2="734.7" gradientUnits="userSpaceOnUse">
<stop stop-color="#58CAEA"/>
<stop offset="1" stop-color="#4C4CBF"/>
</linearGradient>
<linearGradient id="paint59_linear" x1="24.5955" y1="733.457" x2="34.8166" y2="737.832" gradientUnits="userSpaceOnUse">
<stop stop-color="#58CAEA"/>
<stop offset="1" stop-color="#4C4CBF"/>
</linearGradient>
<linearGradient id="paint60_linear" x1="34.0808" y1="733.699" x2="36.4208" y2="734.7" gradientUnits="userSpaceOnUse">
<stop stop-color="#58CAEA"/>
<stop offset="1" stop-color="#4C4CBF"/>
</linearGradient>
<linearGradient id="paint61_linear" x1="26.4976" y1="756.288" x2="30.3288" y2="757.928" gradientUnits="userSpaceOnUse">
<stop stop-color="#58CAEA"/>
<stop offset="1" stop-color="#4C4CBF"/>
</linearGradient>
<linearGradient id="paint62_linear" x1="18.4813" y1="739.513" x2="32.5272" y2="745.525" gradientUnits="userSpaceOnUse">
<stop stop-color="#58CAEA"/>
<stop offset="1" stop-color="#4C4CBF"/>
</linearGradient>
<linearGradient id="paint63_linear" x1="23.081" y1="766.681" x2="27.4066" y2="768.538" gradientUnits="userSpaceOnUse">
<stop stop-color="#58CAEA"/>
<stop offset="1" stop-color="#4C4CBF"/>
</linearGradient>
<linearGradient id="paint64_linear" x1="14.4202" y1="749.205" x2="29.5849" y2="755.696" gradientUnits="userSpaceOnUse">
<stop stop-color="#58CAEA"/>
<stop offset="1" stop-color="#4C4CBF"/>
</linearGradient>
<linearGradient id="paint65_linear" x1="19.7234" y1="778.184" x2="24.2892" y2="780.139" gradientUnits="userSpaceOnUse">
<stop stop-color="#58CAEA"/>
<stop offset="1" stop-color="#4C4CBF"/>
</linearGradient>
<linearGradient id="paint66_linear" x1="11.3062" y1="760.211" x2="26.4707" y2="766.702" gradientUnits="userSpaceOnUse">
<stop stop-color="#58CAEA"/>
<stop offset="1" stop-color="#4C4CBF"/>
</linearGradient>
<linearGradient id="paint67_linear" x1="16.5772" y1="789.274" x2="21.2311" y2="791.266" gradientUnits="userSpaceOnUse">
<stop stop-color="#58CAEA"/>
<stop offset="1" stop-color="#4C4CBF"/>
</linearGradient>
<linearGradient id="paint68_linear" x1="6.91614" y1="769.008" x2="23.2794" y2="776.012" gradientUnits="userSpaceOnUse">
<stop stop-color="#58CAEA"/>
<stop offset="1" stop-color="#4C4CBF"/>
</linearGradient>
<linearGradient id="paint69_linear" x1="12.5292" y1="800.494" x2="18.2271" y2="802.933" gradientUnits="userSpaceOnUse">
<stop stop-color="#58CAEA"/>
<stop offset="1" stop-color="#4C4CBF"/>
</linearGradient>
<linearGradient id="paint70_linear" x1="2.0321" y1="778.157" x2="20.2426" y2="785.952" gradientUnits="userSpaceOnUse">
<stop stop-color="#58CAEA"/>
<stop offset="1" stop-color="#4C4CBF"/>
</linearGradient>
<linearGradient id="paint71_linear" x1="9.88311" y1="809.636" x2="15.6862" y2="812.12" gradientUnits="userSpaceOnUse">
<stop stop-color="#58CAEA"/>
<stop offset="1" stop-color="#4C4CBF"/>
</linearGradient>
<linearGradient id="paint72_linear" x1="-1.74175" y1="791.113" x2="18.6465" y2="799.84" gradientUnits="userSpaceOnUse">
<stop stop-color="#58CAEA"/>
<stop offset="1" stop-color="#4C4CBF"/>
</linearGradient>
<linearGradient id="paint73_linear" x1="-5.47233" y1="803.868" x2="15.6472" y2="812.908" gradientUnits="userSpaceOnUse">
<stop stop-color="#58CAEA"/>
<stop offset="1" stop-color="#4C4CBF"/>
</linearGradient>
<linearGradient id="paint74_linear" x1="9.06986" y1="821.763" x2="11.8875" y2="822.972" gradientUnits="userSpaceOnUse">
<stop stop-color="#58CAEA"/>
<stop offset="1" stop-color="#4C4CBF"/>
</linearGradient>
<linearGradient id="paint75_linear" x1="8.24406" y1="828.356" x2="10.0607" y2="829.136" gradientUnits="userSpaceOnUse">
<stop stop-color="#58CAEA"/>
<stop offset="1" stop-color="#4C4CBF"/>
</linearGradient>
<linearGradient id="paint76_linear" x1="3.47925" y1="539.357" x2="18.2662" y2="508.93" gradientUnits="userSpaceOnUse">
<stop stop-color="#58CAEA"/>
<stop offset="1" stop-color="#4C4CBF"/>
</linearGradient>
<linearGradient id="paint77_linear" x1="-14.4577" y1="491.943" x2="2.15534" y2="491.943" gradientUnits="userSpaceOnUse">
<stop stop-color="#58CAEA"/>
<stop offset="1" stop-color="#4C4CBF"/>
</linearGradient>
<linearGradient id="paint78_linear" x1="-12.539" y1="505.674" x2="4.07409" y2="505.674" gradientUnits="userSpaceOnUse">
<stop stop-color="#58CAEA"/>
<stop offset="1" stop-color="#4C4CBF"/>
</linearGradient>
<linearGradient id="paint79_linear" x1="-9.58159" y1="518.441" x2="8.92907" y2="518.441" gradientUnits="userSpaceOnUse">
<stop stop-color="#58CAEA"/>
<stop offset="1" stop-color="#4C4CBF"/>
</linearGradient>
<linearGradient id="paint80_linear" x1="-7.58592" y1="532.054" x2="15.2626" y2="532.054" gradientUnits="userSpaceOnUse">
<stop stop-color="#58CAEA"/>
<stop offset="1" stop-color="#4C4CBF"/>
</linearGradient>
<linearGradient id="paint81_linear" x1="-8.34163" y1="548.378" x2="17.1272" y2="548.378" gradientUnits="userSpaceOnUse">
<stop stop-color="#58CAEA"/>
<stop offset="1" stop-color="#4C4CBF"/>
</linearGradient>
<linearGradient id="paint82_linear" x1="-9.15831" y1="564.827" x2="22.1274" y2="564.827" gradientUnits="userSpaceOnUse">
<stop stop-color="#58CAEA"/>
<stop offset="1" stop-color="#4C4CBF"/>
</linearGradient>
<linearGradient id="paint83_linear" x1="-6.13416" y1="474.485" x2="-0.365009" y2="472.42" gradientUnits="userSpaceOnUse">
<stop stop-color="#58CAEA"/>
<stop offset="1" stop-color="#4C4CBF"/>
</linearGradient>
<linearGradient id="paint84_linear" x1="-2.14793" y1="501.355" x2="-0.388081" y2="500.725" gradientUnits="userSpaceOnUse">
<stop stop-color="#58CAEA"/>
<stop offset="1" stop-color="#4C4CBF"/>
</linearGradient>
<linearGradient id="paint85_linear" x1="-0.731692" y1="511.866" x2="1.13748" y2="511.198" gradientUnits="userSpaceOnUse">
<stop stop-color="#58CAEA"/>
<stop offset="1" stop-color="#4C4CBF"/>
</linearGradient>
<linearGradient id="paint86_linear" x1="-15.7931" y1="512.327" x2="-3.85969" y2="508.057" gradientUnits="userSpaceOnUse">
<stop stop-color="#58CAEA"/>
<stop offset="1" stop-color="#4C4CBF"/>
</linearGradient>
<linearGradient id="paint87_linear" x1="0.388402" y1="522.575" x2="2.92586" y2="521.667" gradientUnits="userSpaceOnUse">
<stop stop-color="#58CAEA"/>
<stop offset="1" stop-color="#4C4CBF"/>
</linearGradient>
<linearGradient id="paint88_linear" x1="-15.6423" y1="523.463" x2="-2.58934" y2="518.791" gradientUnits="userSpaceOnUse">
<stop stop-color="#58CAEA"/>
<stop offset="1" stop-color="#4C4CBF"/>
</linearGradient>
<linearGradient id="paint89_linear" x1="2.16354" y1="533.754" x2="4.77088" y2="532.821" gradientUnits="userSpaceOnUse">
<stop stop-color="#58CAEA"/>
<stop offset="1" stop-color="#4C4CBF"/>
</linearGradient>
<linearGradient id="paint90_linear" x1="-13.9269" y1="534.081" x2="-0.87388" y2="529.41" gradientUnits="userSpaceOnUse">
<stop stop-color="#58CAEA"/>
<stop offset="1" stop-color="#4C4CBF"/>
</linearGradient>
<linearGradient id="paint91_linear" x1="3.90993" y1="544.455" x2="6.63659" y2="543.479" gradientUnits="userSpaceOnUse">
<stop stop-color="#58CAEA"/>
<stop offset="1" stop-color="#4C4CBF"/>
</linearGradient>
<linearGradient id="paint92_linear" x1="-14.7245" y1="545.207" x2="-0.137272" y2="539.987" gradientUnits="userSpaceOnUse">
<stop stop-color="#58CAEA"/>
<stop offset="1" stop-color="#4C4CBF"/>
</linearGradient>
<linearGradient id="paint93_linear" x1="5.05126" y1="556.3" x2="8.52005" y2="555.059" gradientUnits="userSpaceOnUse">
<stop stop-color="#58CAEA"/>
<stop offset="1" stop-color="#4C4CBF"/>
</linearGradient>
<linearGradient id="paint94_linear" x1="-16.5198" y1="557.549" x2="1.68149" y2="551.036" gradientUnits="userSpaceOnUse">
<stop stop-color="#58CAEA"/>
<stop offset="1" stop-color="#4C4CBF"/>
</linearGradient>
<linearGradient id="paint95_linear" x1="6.44894" y1="565.188" x2="9.99775" y2="563.918" gradientUnits="userSpaceOnUse">
<stop stop-color="#58CAEA"/>
<stop offset="1" stop-color="#4C4CBF"/>
</linearGradient>
<linearGradient id="paint96_linear" x1="-14.1438" y1="570.013" x2="6.14229" y2="562.754" gradientUnits="userSpaceOnUse">
<stop stop-color="#58CAEA"/>
<stop offset="1" stop-color="#4C4CBF"/>
</linearGradient>
<linearGradient id="paint97_linear" x1="-14.3733" y1="583.801" x2="10.9678" y2="574.732" gradientUnits="userSpaceOnUse">
<stop stop-color="#58CAEA"/>
<stop offset="1" stop-color="#4C4CBF"/>
</linearGradient>
<linearGradient id="paint98_linear" x1="9.87003" y1="573.97" x2="11.9935" y2="573.21" gradientUnits="userSpaceOnUse">
<stop stop-color="#58CAEA"/>
<stop offset="1" stop-color="#4C4CBF"/>
</linearGradient>
<linearGradient id="paint99_linear" x1="11.5191" y1="579.099" x2="13.363" y2="578.439" gradientUnits="userSpaceOnUse">
<stop stop-color="#58CAEA"/>
<stop offset="1" stop-color="#4C4CBF"/>
</linearGradient>
<linearGradient id="paint100_linear" x1="-2.85471" y1="482.039" x2="4.35885" y2="479.457" gradientUnits="userSpaceOnUse">
<stop stop-color="#58CAEA"/>
<stop offset="1" stop-color="#4C4CBF"/>
</linearGradient>
<linearGradient id="paint101_linear" x1="-1.22993" y1="489.899" x2="7.67988" y2="486.711" gradientUnits="userSpaceOnUse">
<stop stop-color="#58CAEA"/>
<stop offset="1" stop-color="#4C4CBF"/>
</linearGradient>
<linearGradient id="paint102_linear" x1="-0.180751" y1="503.081" x2="3.23922" y2="501.854" gradientUnits="userSpaceOnUse">
<stop stop-color="#58CAEA"/>
<stop offset="1" stop-color="#4C4CBF"/>
</linearGradient>
<linearGradient id="paint103_linear" x1="0.0378693" y1="497.559" x2="9.92879" y2="494.019" gradientUnits="userSpaceOnUse">
<stop stop-color="#58CAEA"/>
<stop offset="1" stop-color="#4C4CBF"/>
</linearGradient>
<linearGradient id="paint104_linear" x1="1.65132" y1="513.023" x2="5.44803" y2="511.661" gradientUnits="userSpaceOnUse">
<stop stop-color="#58CAEA"/>
<stop offset="1" stop-color="#4C4CBF"/>
</linearGradient>
<linearGradient id="paint105_linear" x1="2.01503" y1="506.276" x2="15.4626" y2="501.463" gradientUnits="userSpaceOnUse">
<stop stop-color="#58CAEA"/>
<stop offset="1" stop-color="#4C4CBF"/>
</linearGradient>
<linearGradient id="paint106_linear" x1="3.50823" y1="522.972" x2="7.74583" y2="521.455" gradientUnits="userSpaceOnUse">
<stop stop-color="#58CAEA"/>
<stop offset="1" stop-color="#4C4CBF"/>
</linearGradient>
<linearGradient id="paint107_linear" x1="4.01078" y1="516.174" x2="18.5077" y2="510.986" gradientUnits="userSpaceOnUse">
<stop stop-color="#58CAEA"/>
<stop offset="1" stop-color="#4C4CBF"/>
</linearGradient>
<linearGradient id="paint108_linear" x1="5.41444" y1="533.741" x2="9.89803" y2="532.137" gradientUnits="userSpaceOnUse">
<stop stop-color="#58CAEA"/>
<stop offset="1" stop-color="#4C4CBF"/>
</linearGradient>
<linearGradient id="paint109_linear" x1="5.92986" y1="526.306" x2="20.4265" y2="521.118" gradientUnits="userSpaceOnUse">
<stop stop-color="#58CAEA"/>
<stop offset="1" stop-color="#4C4CBF"/>
</linearGradient>
<linearGradient id="paint110_linear" x1="7.27756" y1="543.99" x2="11.8493" y2="542.353" gradientUnits="userSpaceOnUse">
<stop stop-color="#58CAEA"/>
<stop offset="1" stop-color="#4C4CBF"/>
</linearGradient>
<linearGradient id="paint111_linear" x1="8.27437" y1="535.553" x2="23.8856" y2="529.966" gradientUnits="userSpaceOnUse">
<stop stop-color="#58CAEA"/>
<stop offset="1" stop-color="#4C4CBF"/>
</linearGradient>
<linearGradient id="paint112_linear" x1="9.14462" y1="555.081" x2="14.7316" y2="553.081" gradientUnits="userSpaceOnUse">
<stop stop-color="#58CAEA"/>
<stop offset="1" stop-color="#4C4CBF"/>
</linearGradient>
<linearGradient id="paint113_linear" x1="10.5144" y1="545.566" x2="27.733" y2="539.404" gradientUnits="userSpaceOnUse">
<stop stop-color="#58CAEA"/>
<stop offset="1" stop-color="#4C4CBF"/>
</linearGradient>
<linearGradient id="paint114_linear" x1="10.7144" y1="563.592" x2="16.4127" y2="561.552" gradientUnits="userSpaceOnUse">
<stop stop-color="#58CAEA"/>
<stop offset="1" stop-color="#4C4CBF"/>
</linearGradient>
<linearGradient id="paint115_linear" x1="10.9746" y1="558.501" x2="30.2398" y2="551.606" gradientUnits="userSpaceOnUse">
<stop stop-color="#58CAEA"/>
<stop offset="1" stop-color="#4C4CBF"/>
</linearGradient>
<linearGradient id="paint116_linear" x1="12.7831" y1="570.647" x2="32.469" y2="563.602" gradientUnits="userSpaceOnUse">
<stop stop-color="#58CAEA"/>
<stop offset="1" stop-color="#4C4CBF"/>
</linearGradient>
<linearGradient id="paint117_linear" x1="13.0297" y1="572.543" x2="15.7661" y2="571.564" gradientUnits="userSpaceOnUse">
<stop stop-color="#58CAEA"/>
<stop offset="1" stop-color="#4C4CBF"/>
</linearGradient>
<linearGradient id="paint118_linear" x1="14.1058" y1="577.768" x2="15.818" y2="577.155" gradientUnits="userSpaceOnUse">
<stop stop-color="#58CAEA"/>
<stop offset="1" stop-color="#4C4CBF"/>
</linearGradient>
<linearGradient id="paint119_linear" x1="22.577" y1="537.206" x2="34.9627" y2="544.213" gradientUnits="userSpaceOnUse">
<stop stop-color="#58CAEA"/>
<stop offset="1" stop-color="#4C4CBF"/>
</linearGradient>
<linearGradient id="paint120_linear" x1="43.504" y1="499.018" x2="45.9993" y2="500.429" gradientUnits="userSpaceOnUse">
<stop stop-color="#58CAEA"/>
<stop offset="1" stop-color="#4C4CBF"/>
</linearGradient>
<linearGradient id="paint121_linear" x1="44.4815" y1="502.302" x2="50.771" y2="505.86" gradientUnits="userSpaceOnUse">
<stop stop-color="#58CAEA"/>
<stop offset="1" stop-color="#4C4CBF"/>
</linearGradient>
<linearGradient id="paint122_linear" x1="40.3094" y1="494.059" x2="45.2381" y2="496.847" gradientUnits="userSpaceOnUse">
<stop stop-color="#58CAEA"/>
<stop offset="1" stop-color="#4C4CBF"/>
</linearGradient>
<linearGradient id="paint123_linear" x1="43.0308" y1="509.112" x2="50.1078" y2="513.115" gradientUnits="userSpaceOnUse">
<stop stop-color="#58CAEA"/>
<stop offset="1" stop-color="#4C4CBF"/>
</linearGradient>
<linearGradient id="paint124_linear" x1="36.8703" y1="517.261" x2="38.6449" y2="518.265" gradientUnits="userSpaceOnUse">
<stop stop-color="#58CAEA"/>
<stop offset="1" stop-color="#4C4CBF"/>
</linearGradient>
<linearGradient id="paint125_linear" x1="40.1442" y1="507.921" x2="41.1146" y2="508.47" gradientUnits="userSpaceOnUse">
<stop stop-color="#58CAEA"/>
<stop offset="1" stop-color="#4C4CBF"/>
</linearGradient>
<linearGradient id="paint126_linear" x1="41.3523" y1="515.465" x2="48.4062" y2="519.455" gradientUnits="userSpaceOnUse">
<stop stop-color="#58CAEA"/>
<stop offset="1" stop-color="#4C4CBF"/>
</linearGradient>
<linearGradient id="paint127_linear" x1="40.1442" y1="507.921" x2="41.1146" y2="508.47" gradientUnits="userSpaceOnUse">
<stop stop-color="#58CAEA"/>
<stop offset="1" stop-color="#4C4CBF"/>
</linearGradient>
<linearGradient id="paint128_linear" x1="34.3126" y1="525.348" x2="36.2047" y2="526.418" gradientUnits="userSpaceOnUse">
<stop stop-color="#58CAEA"/>
<stop offset="1" stop-color="#4C4CBF"/>
</linearGradient>
<linearGradient id="paint129_linear" x1="39.7647" y1="523.02" x2="51.0369" y2="529.397" gradientUnits="userSpaceOnUse">
<stop stop-color="#58CAEA"/>
<stop offset="1" stop-color="#4C4CBF"/>
</linearGradient>
<linearGradient id="paint130_linear" x1="31.5805" y1="533.265" x2="34.0805" y2="534.679" gradientUnits="userSpaceOnUse">
<stop stop-color="#58CAEA"/>
<stop offset="1" stop-color="#4C4CBF"/>
</linearGradient>
<linearGradient id="paint131_linear" x1="37.4675" y1="531.273" x2="49.796" y2="538.247" gradientUnits="userSpaceOnUse">
<stop stop-color="#58CAEA"/>
<stop offset="1" stop-color="#4C4CBF"/>
</linearGradient>
<linearGradient id="paint132_linear" x1="28.6631" y1="541.808" x2="31.2385" y2="543.265" gradientUnits="userSpaceOnUse">
<stop stop-color="#58CAEA"/>
<stop offset="1" stop-color="#4C4CBF"/>
</linearGradient>
<linearGradient id="paint133_linear" x1="34.7581" y1="539.411" x2="47.0866" y2="546.386" gradientUnits="userSpaceOnUse">
<stop stop-color="#58CAEA"/>
<stop offset="1" stop-color="#4C4CBF"/>
</linearGradient>
<linearGradient id="paint134_linear" x1="25.8027" y1="549.927" x2="28.4886" y2="551.446" gradientUnits="userSpaceOnUse">
<stop stop-color="#58CAEA"/>
<stop offset="1" stop-color="#4C4CBF"/>
</linearGradient>
<linearGradient id="paint135_linear" x1="33.0129" y1="547.627" x2="46.7372" y2="555.391" gradientUnits="userSpaceOnUse">
<stop stop-color="#58CAEA"/>
<stop offset="1" stop-color="#4C4CBF"/>
</linearGradient>
<linearGradient id="paint136_linear" x1="22.8445" y1="558.727" x2="26.2416" y2="560.648" gradientUnits="userSpaceOnUse">
<stop stop-color="#58CAEA"/>
<stop offset="1" stop-color="#4C4CBF"/>
</linearGradient>
<linearGradient id="paint137_linear" x1="30.3514" y1="555.733" x2="47.3086" y2="565.326" gradientUnits="userSpaceOnUse">
<stop stop-color="#58CAEA"/>
<stop offset="1" stop-color="#4C4CBF"/>
</linearGradient>
<linearGradient id="paint138_linear" x1="20.5139" y1="565.507" x2="23.9869" y2="567.472" gradientUnits="userSpaceOnUse">
<stop stop-color="#58CAEA"/>
<stop offset="1" stop-color="#4C4CBF"/>
</linearGradient>
<linearGradient id="paint139_linear" x1="25.083" y1="563.828" x2="43.9617" y2="574.508" gradientUnits="userSpaceOnUse">
<stop stop-color="#58CAEA"/>
<stop offset="1" stop-color="#4C4CBF"/>
</linearGradient>
<linearGradient id="paint140_linear" x1="19.7246" y1="571.876" x2="42.9179" y2="584.997" gradientUnits="userSpaceOnUse">
<stop stop-color="#58CAEA"/>
<stop offset="1" stop-color="#4C4CBF"/>
</linearGradient>
<linearGradient id="paint141_linear" x1="17.6437" y1="572.677" x2="19.6691" y2="573.822" gradientUnits="userSpaceOnUse">
<stop stop-color="#58CAEA"/>
<stop offset="1" stop-color="#4C4CBF"/>
</linearGradient>
<linearGradient id="paint142_linear" x1="15.8011" y1="576.61" x2="17.5178" y2="577.581" gradientUnits="userSpaceOnUse">
<stop stop-color="#58CAEA"/>
<stop offset="1" stop-color="#4C4CBF"/>
</linearGradient>
<linearGradient id="paint143_linear" x1="38.9825" y1="498.739" x2="43.2898" y2="501.176" gradientUnits="userSpaceOnUse">
<stop stop-color="#58CAEA"/>
<stop offset="1" stop-color="#4C4CBF"/>
</linearGradient>
<linearGradient id="paint144_linear" x1="35.2773" y1="498.425" x2="41.5438" y2="501.97" gradientUnits="userSpaceOnUse">
<stop stop-color="#58CAEA"/>
<stop offset="1" stop-color="#4C4CBF"/>
</linearGradient>
<linearGradient id="paint145_linear" x1="42.869" y1="499.266" x2="45.1707" y2="500.569" gradientUnits="userSpaceOnUse">
<stop stop-color="#58CAEA"/>
<stop offset="1" stop-color="#4C4CBF"/>
</linearGradient>
<linearGradient id="paint146_linear" x1="31.6059" y1="503.288" x2="39.2937" y2="507.637" gradientUnits="userSpaceOnUse">
<stop stop-color="#58CAEA"/>
<stop offset="1" stop-color="#4C4CBF"/>
</linearGradient>
<linearGradient id="paint147_linear" x1="33.6612" y1="517.186" x2="36.5232" y2="518.805" gradientUnits="userSpaceOnUse">
<stop stop-color="#58CAEA"/>
<stop offset="1" stop-color="#4C4CBF"/>
</linearGradient>
<linearGradient id="paint148_linear" x1="37.6005" y1="508.728" x2="39.5403" y2="509.826" gradientUnits="userSpaceOnUse">
<stop stop-color="#58CAEA"/>
<stop offset="1" stop-color="#4C4CBF"/>
</linearGradient>
<linearGradient id="paint149_linear" x1="28.8277" y1="508.559" x2="37.3012" y2="513.353" gradientUnits="userSpaceOnUse">
<stop stop-color="#58CAEA"/>
<stop offset="1" stop-color="#4C4CBF"/>
</linearGradient>
<linearGradient id="paint150_linear" x1="37.6005" y1="508.728" x2="39.5403" y2="509.826" gradientUnits="userSpaceOnUse">
<stop stop-color="#58CAEA"/>
<stop offset="1" stop-color="#4C4CBF"/>
</linearGradient>
<linearGradient id="paint151_linear" x1="30.5871" y1="524.536" x2="33.7634" y2="526.333" gradientUnits="userSpaceOnUse">
<stop stop-color="#58CAEA"/>
<stop offset="1" stop-color="#4C4CBF"/>
</linearGradient>
<linearGradient id="paint152_linear" x1="23.1728" y1="512.797" x2="34.8171" y2="519.384" gradientUnits="userSpaceOnUse">
<stop stop-color="#58CAEA"/>
<stop offset="1" stop-color="#4C4CBF"/>
</linearGradient>
<linearGradient id="paint153_linear" x1="27.4273" y1="531.808" x2="31.0117" y2="533.841" gradientUnits="userSpaceOnUse">
<stop stop-color="#58CAEA"/>
<stop offset="1" stop-color="#4C4CBF"/>
</linearGradient>
<linearGradient id="paint154_linear" x1="19.4171" y1="519.579" x2="31.9888" y2="526.691" gradientUnits="userSpaceOnUse">
<stop stop-color="#58CAEA"/>
<stop offset="1" stop-color="#4C4CBF"/>
</linearGradient>
<linearGradient id="paint155_linear" x1="24.3187" y1="539.858" x2="28.1088" y2="542.007" gradientUnits="userSpaceOnUse">
<stop stop-color="#58CAEA"/>
<stop offset="1" stop-color="#4C4CBF"/>
</linearGradient>
<linearGradient id="paint156_linear" x1="16.537" y1="527.281" x2="29.1087" y2="534.393" gradientUnits="userSpaceOnUse">
<stop stop-color="#58CAEA"/>
<stop offset="1" stop-color="#4C4CBF"/>
</linearGradient>
<linearGradient id="paint157_linear" x1="21.4123" y1="547.618" x2="25.2704" y2="549.801" gradientUnits="userSpaceOnUse">
<stop stop-color="#58CAEA"/>
<stop offset="1" stop-color="#4C4CBF"/>
</linearGradient>
<linearGradient id="paint158_linear" x1="12.4767" y1="533.436" x2="26.0422" y2="541.11" gradientUnits="userSpaceOnUse">
<stop stop-color="#58CAEA"/>
<stop offset="1" stop-color="#4C4CBF"/>
</linearGradient>
<linearGradient id="paint159_linear" x1="17.6683" y1="555.47" x2="22.3921" y2="558.142" gradientUnits="userSpaceOnUse">
<stop stop-color="#58CAEA"/>
<stop offset="1" stop-color="#4C4CBF"/>
</linearGradient>
<linearGradient id="paint160_linear" x1="7.95956" y1="539.839" x2="23.0564" y2="548.379" gradientUnits="userSpaceOnUse">
<stop stop-color="#58CAEA"/>
<stop offset="1" stop-color="#4C4CBF"/>
</linearGradient>
<linearGradient id="paint161_linear" x1="15.2212" y1="561.867" x2="20.0321" y2="564.588" gradientUnits="userSpaceOnUse">
<stop stop-color="#58CAEA"/>
<stop offset="1" stop-color="#4C4CBF"/>
</linearGradient>
<linearGradient id="paint162_linear" x1="4.46935" y1="548.905" x2="21.3718" y2="558.467" gradientUnits="userSpaceOnUse">
<stop stop-color="#58CAEA"/>
<stop offset="1" stop-color="#4C4CBF"/>
</linearGradient>
<linearGradient id="paint163_linear" x1="1.01912" y1="557.831" x2="18.5277" y2="567.735" gradientUnits="userSpaceOnUse">
<stop stop-color="#58CAEA"/>
<stop offset="1" stop-color="#4C4CBF"/>
</linearGradient>
<linearGradient id="paint164_linear" x1="14.4691" y1="570.353" x2="16.804" y2="571.677" gradientUnits="userSpaceOnUse">
<stop stop-color="#58CAEA"/>
<stop offset="1" stop-color="#4C4CBF"/>
</linearGradient>
<linearGradient id="paint165_linear" x1="13.7057" y1="574.967" x2="15.211" y2="575.821" gradientUnits="userSpaceOnUse">
<stop stop-color="#58CAEA"/>
<stop offset="1" stop-color="#4C4CBF"/>
</linearGradient>
<linearGradient id="paint166_linear" x1="253.103" y1="666.237" x2="294.031" y2="666.237" gradientUnits="userSpaceOnUse">
<stop stop-color="#93FD93"/>
<stop offset="0.51" stop-color="#21C2C1"/>
<stop offset="1" stop-color="#84F599"/>
</linearGradient>
<linearGradient id="paint167_linear" x1="268.438" y1="641.866" x2="309.351" y2="668.468" gradientUnits="userSpaceOnUse">
<stop stop-color="#93FD93"/>
<stop offset="0.51" stop-color="#21C2C1"/>
<stop offset="1" stop-color="#84F599"/>
</linearGradient>
<linearGradient id="paint168_linear" x1="295.216" y1="702.655" x2="338.961" y2="684.704" gradientUnits="userSpaceOnUse">
<stop stop-color="#93FD93"/>
<stop offset="0.51" stop-color="#21C2C1"/>
<stop offset="1" stop-color="#84F599"/>
</linearGradient>
<linearGradient id="paint169_linear" x1="303.253" y1="678.966" x2="253.992" y2="645.893" gradientUnits="userSpaceOnUse">
<stop stop-color="#93FD93"/>
<stop offset="0.51" stop-color="#21C2C1"/>
<stop offset="1" stop-color="#84F599"/>
</linearGradient>
<linearGradient id="paint170_linear" x1="276.142" y1="638.348" x2="295.462" y2="638.348" gradientUnits="userSpaceOnUse">
<stop stop-color="#93FD93"/>
<stop offset="0.51" stop-color="#21C2C1"/>
<stop offset="1" stop-color="#84F599"/>
</linearGradient>
<linearGradient id="paint171_linear" x1="293.806" y1="697.867" x2="334.543" y2="666.622" gradientUnits="userSpaceOnUse">
<stop stop-color="#93FD93"/>
<stop offset="0.51" stop-color="#21C2C1"/>
<stop offset="1" stop-color="#84F599"/>
</linearGradient>
<linearGradient id="paint172_linear" x1="281.74" y1="712.615" x2="311.559" y2="712.615" gradientUnits="userSpaceOnUse">
<stop stop-color="#4F68CA"/>
<stop offset="1" stop-color="#5ACEED"/>
</linearGradient>
<linearGradient id="paint173_linear" x1="137.758" y1="660.737" x2="178.685" y2="660.737" gradientUnits="userSpaceOnUse">
<stop stop-color="#93FD93"/>
<stop offset="0.51" stop-color="#21C2C1"/>
<stop offset="1" stop-color="#84F599"/>
</linearGradient>
<linearGradient id="paint174_linear" x1="153.093" y1="636.366" x2="194.005" y2="662.968" gradientUnits="userSpaceOnUse">
<stop stop-color="#93FD93"/>
<stop offset="0.51" stop-color="#21C2C1"/>
<stop offset="1" stop-color="#84F599"/>
</linearGradient>
<linearGradient id="paint175_linear" x1="179.87" y1="697.155" x2="223.615" y2="679.204" gradientUnits="userSpaceOnUse">
<stop stop-color="#93FD93"/>
<stop offset="0.51" stop-color="#21C2C1"/>
<stop offset="1" stop-color="#84F599"/>
</linearGradient>
<linearGradient id="paint176_linear" x1="187.907" y1="673.466" x2="138.646" y2="640.393" gradientUnits="userSpaceOnUse">
<stop stop-color="#93FD93"/>
<stop offset="0.51" stop-color="#21C2C1"/>
<stop offset="1" stop-color="#84F599"/>
</linearGradient>
<linearGradient id="paint177_linear" x1="160.796" y1="632.848" x2="180.116" y2="632.848" gradientUnits="userSpaceOnUse">
<stop stop-color="#93FD93"/>
<stop offset="0.51" stop-color="#21C2C1"/>
<stop offset="1" stop-color="#84F599"/>
</linearGradient>
<linearGradient id="paint178_linear" x1="178.46" y1="692.367" x2="219.197" y2="661.122" gradientUnits="userSpaceOnUse">
<stop stop-color="#93FD93"/>
<stop offset="0.51" stop-color="#21C2C1"/>
<stop offset="1" stop-color="#84F599"/>
</linearGradient>
<linearGradient id="paint179_linear" x1="196.09" y1="684.25" x2="158.46" y2="711.113" gradientUnits="userSpaceOnUse">
<stop stop-color="#2F3E46"/>
<stop offset="1" stop-color="#FFA17A"/>
</linearGradient>
<clipPath id="clip0">
<rect width="414" height="896" fill="white"/>
</clipPath>
<clipPath id="clip1">
<rect width="873" height="896" fill="white" transform="translate(-85)"/>
</clipPath>
</defs>
</svg>
