<svg width="20" height="25" viewBox="0 0 20 25" fill="none" xmlns="http://www.w3.org/2000/svg">
<path d="M17.418 7.63628C17.5484 7.47544 17.7243 7.38526 17.9075 7.38526C18.0907 7.38526 18.2666 7.47544 18.397 7.63628C18.4612 7.71537 18.5123 7.80965 18.5471 7.91362C18.5819 8.01759 18.5999 8.12918 18.5999 8.2419C18.5999 8.35462 18.5819 8.46621 18.5471 8.57019C18.5123 8.67416 18.4612 8.76844 18.397 8.84753L10.489 18.635C10.3586 18.7959 10.1827 18.886 9.99949 18.886C9.81627 18.886 9.64042 18.7959 9.50999 18.635L1.60199 8.84753C1.53774 8.76844 1.48671 8.67416 1.45189 8.57019C1.41706 8.46621 1.39912 8.35462 1.39912 8.2419C1.39912 8.12918 1.41706 8.01759 1.45189 7.91362C1.48671 7.80965 1.53774 7.71537 1.60199 7.63628C1.73242 7.47544 1.90827 7.38526 2.09149 7.38526C2.27471 7.38526 2.45056 7.47544 2.58099 7.63628L9.99999 16.5625L17.418 7.63628Z" fill="white"/>
</svg>
